<svg xmlns="http://www.w3.org/2000/svg" width="800" height="800" viewBox="0 0 800 800">
  <defs>
    <style>
      .cls-1 {
        fill: #609;
      }

      .cls-1, .cls-3 {
        fill-rule: evenodd;
      }

      .cls-2 {
        fill: none;
        stroke: #27004b;
        stroke-width: 15px;
      }

      .cls-3 {
        fill: #27004b;
      }
    </style>
  </defs>
  <g id="logo_square">
    <g>
      <path id="A" class="cls-1" d="M758.994,674.144L531.407,341.432c-15.79-23.1-38.113-41.245-71.87-41.245-35.39,0-57.714,19.8-72.959,41.245L153,674.144H286.4L457.359,429.972,522.7,527.311c11.979,17.6,27.224,40.145,37.024,53.344-17.423-1.1-43.013-1.1-64.792-1.1h-91.47L335.4,674.144h423.6Z" transform="translate(-150)"/>
      <circle class="cls-2" cx="562.375" cy="365.765" r="189.813"/>
      <path id="Color_Fill_1" data-name="Color Fill 1" class="cls-3" d="M620.476,126.061L727.342,319.674l219.579-50.327L753.308,376.212q25.162,109.779,50.328,219.58Q750.209,499,696.77,402.179L477.191,452.506,670.8,345.641Q645.643,235.862,620.476,126.061Z" transform="translate(-150)"/>
    </g>
  </g>
</svg>
