<svg xmlns="http://www.w3.org/2000/svg" width="1000" height="250" viewBox="0 0 2000 500">
  <defs>
    <style>
      .cls-1 {
        fill: #480082;
        fill-rule: evenodd;
      }

      .cls-2 {
        fill: none;
        stroke: #480082;
        stroke-width: 15px;
      }
    </style>
  </defs>
  <g id="logo_primary">
    <g>
      <g>
        <path id="A" class="cls-1" d="M566.57,1431.27L376.661,1153.64c-13.176-19.27-31.8-34.42-59.972-34.42-29.531,0-48.159,16.52-60.88,34.42L60.9,1431.27h111.31l142.66-203.75,54.519,81.23c10,14.68,22.717,33.5,30.895,44.51-14.539-.92-35.892-0.92-54.065-0.92H269.893L213.1,1431.27H566.57Z" transform="translate(0 -952)"/>
        <path id="dventures" class="cls-1" d="M793.484,1273.9c0-24.94-21.625-42.39-51.568-42.39H701.48L684.59,1254h57.326c14.332,0,25.336,8.91,25.336,21.06,0,12.41-10.621,20.68-25.336,20.68H711.205v-31.66H684.59v53.89h57.326C771.6,1317.97,793.484,1298.97,793.484,1273.9Zm16.888-42.39,53.615,78.19c3.711,5.43,8.958,9.69,16.891,9.69,8.19,0,13.436-4.65,17.147-9.69l54.768-78.19H921.57l-40.18,57.38-38.516-57.38h-32.5Zm201.538,64.23v-11.76h52.59l15.23-19.64h-67.82V1254h55.4l17.15-22.49H985.29v86.46h82.41l17.02-22.23h-72.81Zm191.68,23.65c7.68,0,14.59-4.78,14.59-16.28v-71.6h-24.19v50.79l-52.46-47.56c-4.23-3.88-7.43-4.65-10.62-4.65-7.55,0-14.46,4.65-14.46,16.15v71.73h24.05v-50.79l52.47,47.56C1197.06,1318.62,1200.26,1319.39,1203.59,1319.39Zm62.31-87.88L1248.75,1254h40.18v63.97h26.49V1254H1346l17.15-22.49H1265.9Zm239.54,0h-26.62v48.72c0,12.15-6.39,16.93-26.74,16.93-27.26,0-32.63-4.13-32.63-16.93v-48.72h-26.36v48.72c0,26.11,17.79,39.16,58.99,39.16q53.355,0,53.36-39.16v-48.72Zm143.7,69.66c-5.89-6.07-9.09-9.18-12.03-11.37,14.07-2.85,22.39-13.96,22.39-27.4,0-24.69-24.57-30.89-44.02-30.89h-55.02L1543.18,1254h74.48c9.08,0,14.59,3.36,14.59,10.08,0,5.94-6.4,9.69-14.59,9.69h-74.48v44.2h26.49V1295.1h40.69l19.07,22.87h35.45Zm74.85-5.43v-11.76h52.59l15.23-19.64h-67.82V1254h55.41l17.14-22.49h-99.17v86.46h82.41l17.02-22.23h-72.81Zm137.68-29.72c-6.14,0-9.08-1.68-9.08-6.08s2.94-5.94,9.08-5.94h59.38l17.01-22.49h-74.34c-25.98,0-36.73,10.6-36.73,26.88,0,14.86,10.11,24.82,32.12,24.82h46.58c6.27,0,9.09,1.8,9.09,6.2,0,4.52-2.82,6.33-9.09,6.33h-64.75l-17.02,22.23h79.72c26.11,0,36.73-10.6,36.73-28.3,0-15.77-11.26-23.65-32.12-23.65h-46.58Z" transform="translate(0 -952)"/>
      </g>
      <g>
        <circle class="cls-2" cx="527.672" cy="221.95" r="158.391"/>
        <path id="Color_Fill_1" data-name="Color Fill 1" class="cls-1" d="M450.984,973.925q44.583,80.768,89.174,161.555,91.6-20.985,183.227-41.99l-161.559,89.17,42,183.23q-44.582-80.775-89.173-161.56-91.605,21-183.228,42,80.772-44.6,161.56-89.18Q471.985,1065.545,450.984,973.925Z" transform="translate(0 -952)"/>
      </g>
    </g>
  </g>
</svg>
