<svg xmlns="http://www.w3.org/2000/svg" width="1000" height="250" viewBox="0 0 2000 500">
  <defs>
    <style>
      .cls-1 {
        fill: #609;
      }

      .cls-1, .cls-3 {
        fill-rule: evenodd;
      }

      .cls-2 {
        fill: none;
        stroke: #27004b;
        stroke-width: 15px;
      }

      .cls-3 {
        fill: #27004b;
      }
    </style>
  </defs>
  <g id="logo_original_copy" data-name="logo_original copy">
    <g>
      <g>
        <path id="A" class="cls-1" d="M2666.57,2071.27l-189.91-277.63c-13.17-19.27-31.8-34.42-59.97-34.42-29.53,0-48.16,16.52-60.88,34.42L2160.9,2071.27h111.31l142.66-203.75,54.52,81.23c10,14.68,22.72,33.5,30.9,44.51-14.54-.92-35.9-0.92-54.07-0.92h-76.33l-56.79,78.93h353.47Z" transform="translate(-2100 -1592)"/>
        <path id="dventures" class="cls-1" d="M2893.48,1913.9c0-24.94-21.62-42.39-51.56-42.39h-40.44L2784.59,1894h57.33c14.33,0,25.33,8.91,25.33,21.06,0,12.41-10.62,20.68-25.33,20.68h-30.71v-31.66h-26.62v53.89h57.33C2871.6,1957.97,2893.48,1938.97,2893.48,1913.9Zm16.89-42.39,53.62,78.19c3.71,5.43,8.95,9.69,16.89,9.69,8.19,0,13.43-4.65,17.15-9.69l54.76-78.19h-31.22l-40.18,57.38-38.52-57.38h-32.5Zm201.54,64.23v-11.76h52.59l15.23-19.64h-67.82V1894h55.4l17.15-22.49h-99.17v86.46h82.41l17.02-22.23h-72.81Zm191.68,23.65c7.68,0,14.59-4.78,14.59-16.28v-71.6h-24.19v50.79l-52.46-47.56c-4.23-3.88-7.42-4.65-10.62-4.65-7.55,0-14.46,4.65-14.46,16.15v71.73h24.05v-50.79l52.47,47.56C3297.06,1958.62,3300.26,1959.39,3303.59,1959.39Zm62.31-87.88L3348.75,1894h40.18v63.97h26.49V1894H3446l17.15-22.49H3365.9Zm239.54,0h-26.62v48.72c0,12.15-6.39,16.93-26.74,16.93-27.26,0-32.63-4.13-32.63-16.93v-48.72h-26.36v48.72c0,26.11,17.79,39.16,58.99,39.16q53.355,0,53.36-39.16v-48.72Zm143.7,69.66c-5.89-6.07-9.09-9.18-12.03-11.37,14.07-2.85,22.39-13.96,22.39-27.4,0-24.69-24.57-30.89-44.02-30.89h-55.02L3643.18,1894h74.48c9.08,0,14.59,3.36,14.59,10.08,0,5.94-6.4,9.69-14.59,9.69h-74.48v44.2h26.49V1935.1h40.69l19.07,22.87h35.45Zm74.85-5.43v-11.76h52.59l15.23-19.64h-67.82V1894h55.41l17.14-22.49h-99.17v86.46h82.41l17.02-22.23h-72.81Zm137.68-29.72c-6.14,0-9.08-1.68-9.08-6.08s2.94-5.94,9.08-5.94h59.38l17.01-22.49h-74.34c-25.98,0-36.73,10.6-36.73,26.88,0,14.86,10.11,24.82,32.12,24.82h46.58c6.27,0,9.09,1.8,9.09,6.2,0,4.52-2.82,6.33-9.09,6.33h-64.75l-17.02,22.23h79.72c26.11,0,36.73-10.6,36.73-28.3,0-15.77-11.26-23.65-32.12-23.65h-46.58Z" transform="translate(-2100 -1592)"/>
      </g>
      <g>
        <circle class="cls-2" cx="527.67" cy="221.95" r="158.39"/>
        <path id="Color_Fill_1" data-name="Color Fill 1" class="cls-3" d="M2550.98,1613.93q44.595,80.76,89.18,161.55,91.605-20.985,183.23-41.99-80.775,44.58-161.56,89.17,20.985,91.6,41.99,183.23-44.58-80.775-89.17-161.56-91.605,21-183.23,42,80.775-44.6,161.56-89.18Q2571.98,1705.545,2550.98,1613.93Z" transform="translate(-2100 -1592)"/>
      </g>
    </g>
  </g>
</svg>
