<svg width="230" height="230" viewBox="0 0 230 230" fill="none" xmlns="http://www.w3.org/2000/svg">
<path d="M9.79659 67.5529C9.67973 67.8061 9.54339 68.0788 9.42653 68.3515C8.94945 69.4463 8.80767 70.658 9.01914 71.8334C9.23062 73.0088 9.78583 74.0951 10.6146 74.9549L149.542 220.482C150.363 221.345 151.42 221.945 152.581 222.209C153.742 222.472 154.955 222.386 156.067 221.962L156.905 221.631L9.79659 67.5529Z" fill="url(#paint0_linear)"/>
<path d="M17.4509 53.3528C16.7382 54.462 16.4216 55.7797 16.5524 57.0917C16.6832 58.4037 17.2538 59.6329 18.1715 60.5795L164.13 213.567C165.034 214.528 166.236 215.155 167.54 215.346C168.845 215.536 170.176 215.28 171.317 214.619L17.4509 53.3528Z" fill="url(#paint1_linear)"/>
<path d="M26.6831 40.9058C25.7092 42.0745 24.7354 43.2432 23.8005 44.4314L180.705 208.717C181.951 207.84 183.159 206.925 184.367 206.009L26.6831 40.9058Z" fill="url(#paint2_linear)"/>
<path d="M0.369966 102.128C0.253106 103.238 0.136298 104.349 0.0583911 105.478C-0.00357886 106.318 0.111846 107.161 0.39707 107.953C0.682293 108.745 1.13088 109.468 1.71386 110.075L113.958 227.709C114.528 228.337 115.227 228.836 116.006 229.172C116.786 229.508 117.628 229.673 118.477 229.656C119.606 229.656 120.717 229.559 121.846 229.481L0.369966 102.128Z" fill="url(#paint3_linear)"/>
<path d="M5.95996 152.422C7.20647 156.026 8.64763 159.532 10.2252 162.98C10.524 163.592 10.9112 164.156 11.3744 164.655L59.9492 215.515C60.4225 216.004 60.9676 216.418 61.5658 216.742C64.9312 218.499 68.3829 220.085 71.908 221.495L5.95996 152.422Z" fill="url(#paint4_linear)"/>
<path d="M3.93438 83.623L3.40847 85.5709C3.15725 86.57 3.16499 87.6166 3.43082 88.6118C3.69664 89.6071 4.21182 90.5181 4.92771 91.2588L132.948 225.43C133.658 226.174 134.544 226.727 135.525 227.037C136.506 227.347 137.549 227.404 138.557 227.202L140.505 226.774L3.93438 83.623Z" fill="url(#paint5_linear)"/>
<path d="M0 123.964C0.155814 125.795 0.350676 127.626 0.584396 129.457C0.763907 130.724 1.33603 131.902 2.22037 132.827L91.2484 226.15C92.141 227.075 93.2975 227.701 94.5595 227.942C96.3708 228.254 98.1821 228.546 100.013 228.78L0 123.964Z" fill="url(#paint6_linear)"/>
<path d="M49.4317 20.1996C48.1657 21.0567 46.9388 21.9527 45.7312 22.8487L203.142 187.835C204.097 186.666 205.09 185.478 205.966 184.251L49.4317 20.1996Z" fill="url(#paint7_linear)"/>
<path d="M139.901 3.89574C139.039 2.98673 137.916 2.36743 136.688 2.12315C134.837 1.75305 132.948 1.44141 131.059 1.1687L228.793 103.608C228.598 101.66 228.365 99.81 228.092 97.9205C227.906 96.6825 227.341 95.5325 226.475 94.6286L139.901 3.89574Z" fill="url(#paint8_linear)"/>
<path d="M172.758 16.109C172.337 15.6627 171.851 15.2819 171.317 14.9792C167.685 12.9067 163.94 11.0403 160.099 9.38879L221.937 74.2148C220.471 70.2991 218.787 66.4687 216.893 62.7416C216.605 62.1954 216.245 61.6908 215.822 61.2418L172.758 16.109Z" fill="url(#paint9_linear)"/>
<path d="M116.782 1.9479C116.218 1.33295 115.531 0.842206 114.767 0.506862C114.002 0.171519 113.176 -0.00108542 112.342 5.13568e-06C111.173 5.13568e-06 110.004 0.0389582 108.836 0.116874L228.793 125.834C228.91 124.685 229.007 123.516 229.085 122.347C229.127 121.52 228.999 120.692 228.711 119.916C228.423 119.139 227.981 118.429 227.41 117.828L116.782 1.9479Z" fill="url(#paint10_linear)"/>
<path d="M80.8674 8.68749C80.0606 7.82925 79.019 7.22751 77.8726 6.95732C76.7262 6.68713 75.5256 6.76043 74.4206 7.16811L73.4857 7.51875L219.756 160.818L220.145 159.902C220.599 158.818 220.726 157.625 220.512 156.469C220.297 155.314 219.75 154.246 218.938 153.396L80.8674 8.68749Z" fill="url(#paint11_linear)"/>
<path d="M66.0652 15.3882C65.1667 14.4336 63.9732 13.8089 62.6768 13.6146C61.3803 13.4203 60.0561 13.6677 58.9172 14.3169H58.8198L212.238 175.115C212.94 173.975 213.245 172.633 213.104 171.301C212.963 169.969 212.384 168.721 211.459 167.752L66.0652 15.3882Z" fill="url(#paint12_linear)"/>
<path d="M195.839 195.88L37.3564 29.7638C36.2462 30.7767 35.136 31.8091 34.0648 32.8609L192.605 199.016C193.696 197.984 194.787 196.932 195.839 195.88Z" fill="url(#paint13_linear)"/>
<path d="M97.5588 3.89574C96.8633 3.15406 95.9912 2.60072 95.0239 2.28734C94.0566 1.97397 93.0257 1.91078 92.0274 2.10369C91.3457 2.22056 90.664 2.37638 90.0797 2.51273L225.501 144.553C225.677 143.891 225.852 143.228 226.008 142.605C226.249 141.618 226.236 140.586 225.97 139.605C225.705 138.624 225.195 137.726 224.489 136.995L97.5588 3.89574Z" fill="url(#paint14_linear)"/>
<defs>
<linearGradient id="paint0_linear" x1="79889" y1="45179.4" x2="91126.6" y2="45179.4" gradientUnits="userSpaceOnUse">
<stop stop-color="#7F20CC"/>
<stop offset="0.08" stop-color="#7920CA" stop-opacity="0.89"/>
<stop offset="0.33" stop-color="#671EC5" stop-opacity="0.57"/>
<stop offset="0.55" stop-color="#591DC1" stop-opacity="0.33"/>
<stop offset="0.74" stop-color="#4E1DBE" stop-opacity="0.15"/>
<stop offset="0.9" stop-color="#481CBD" stop-opacity="0.04"/>
<stop offset="1" stop-color="#461CBC" stop-opacity="0"/>
</linearGradient>
<linearGradient id="paint1_linear" x1="84177.8" y1="46400.9" x2="96482.3" y2="46400.9" gradientUnits="userSpaceOnUse">
<stop stop-color="#7F20CC"/>
<stop offset="0.08" stop-color="#7920CA" stop-opacity="0.89"/>
<stop offset="0.33" stop-color="#671EC5" stop-opacity="0.57"/>
<stop offset="0.55" stop-color="#591DC1" stop-opacity="0.33"/>
<stop offset="0.74" stop-color="#4E1DBE" stop-opacity="0.15"/>
<stop offset="0.9" stop-color="#481CBD" stop-opacity="0.04"/>
<stop offset="1" stop-color="#461CBC" stop-opacity="0"/>
</linearGradient>
<linearGradient id="paint2_linear" x1="87924.1" y1="47204.2" x2="101156" y2="47204.2" gradientUnits="userSpaceOnUse">
<stop stop-color="#7F20CC"/>
<stop offset="0.08" stop-color="#7920CA" stop-opacity="0.89"/>
<stop offset="0.33" stop-color="#671EC5" stop-opacity="0.57"/>
<stop offset="0.55" stop-color="#591DC1" stop-opacity="0.33"/>
<stop offset="0.74" stop-color="#4E1DBE" stop-opacity="0.15"/>
<stop offset="0.9" stop-color="#481CBD" stop-opacity="0.04"/>
<stop offset="1" stop-color="#461CBC" stop-opacity="0"/>
</linearGradient>
<linearGradient id="paint3_linear" x1="65194.5" y1="38635.2" x2="72812.1" y2="38635.2" gradientUnits="userSpaceOnUse">
<stop stop-color="#7F20CC"/>
<stop offset="0.08" stop-color="#7920CA" stop-opacity="0.89"/>
<stop offset="0.33" stop-color="#671EC5" stop-opacity="0.57"/>
<stop offset="0.55" stop-color="#591DC1" stop-opacity="0.33"/>
<stop offset="0.74" stop-color="#4E1DBE" stop-opacity="0.15"/>
<stop offset="0.9" stop-color="#481CBD" stop-opacity="0.04"/>
<stop offset="1" stop-color="#461CBC" stop-opacity="0"/>
</linearGradient>
<linearGradient id="paint4_linear" x1="35504.4" y1="21770.7" x2="37736.1" y2="21770.7" gradientUnits="userSpaceOnUse">
<stop stop-color="#7F20CC"/>
<stop offset="0.08" stop-color="#7920CA" stop-opacity="0.89"/>
<stop offset="0.33" stop-color="#671EC5" stop-opacity="0.57"/>
<stop offset="0.55" stop-color="#591DC1" stop-opacity="0.33"/>
<stop offset="0.74" stop-color="#4E1DBE" stop-opacity="0.15"/>
<stop offset="0.9" stop-color="#481CBD" stop-opacity="0.04"/>
<stop offset="1" stop-color="#461CBC" stop-opacity="0"/>
</linearGradient>
<linearGradient id="paint5_linear" x1="73705.8" y1="42734.5" x2="83379.9" y2="42734.5" gradientUnits="userSpaceOnUse">
<stop stop-color="#7F20CC"/>
<stop offset="0.08" stop-color="#7920CA" stop-opacity="0.89"/>
<stop offset="0.33" stop-color="#671EC5" stop-opacity="0.57"/>
<stop offset="0.55" stop-color="#591DC1" stop-opacity="0.33"/>
<stop offset="0.74" stop-color="#4E1DBE" stop-opacity="0.15"/>
<stop offset="0.9" stop-color="#481CBD" stop-opacity="0.04"/>
<stop offset="1" stop-color="#461CBC" stop-opacity="0"/>
</linearGradient>
<linearGradient id="paint6_linear" x1="53528.9" y1="32359.1" x2="58664.6" y2="32359.1" gradientUnits="userSpaceOnUse">
<stop stop-color="#7F20CC"/>
<stop offset="0.08" stop-color="#7920CA" stop-opacity="0.89"/>
<stop offset="0.33" stop-color="#671EC5" stop-opacity="0.57"/>
<stop offset="0.55" stop-color="#591DC1" stop-opacity="0.33"/>
<stop offset="0.74" stop-color="#4E1DBE" stop-opacity="0.15"/>
<stop offset="0.9" stop-color="#481CBD" stop-opacity="0.04"/>
<stop offset="1" stop-color="#461CBC" stop-opacity="0"/>
</linearGradient>
<linearGradient id="paint7_linear" x1="89569" y1="45348.9" x2="102752" y2="45348.9" gradientUnits="userSpaceOnUse">
<stop stop-color="#7F20CC"/>
<stop offset="0.08" stop-color="#7920CA" stop-opacity="0.89"/>
<stop offset="0.33" stop-color="#671EC5" stop-opacity="0.57"/>
<stop offset="0.55" stop-color="#591DC1" stop-opacity="0.33"/>
<stop offset="0.74" stop-color="#4E1DBE" stop-opacity="0.15"/>
<stop offset="0.9" stop-color="#481CBD" stop-opacity="0.04"/>
<stop offset="1" stop-color="#461CBC" stop-opacity="0"/>
</linearGradient>
<linearGradient id="paint8_linear" x1="59016.9" y1="24985.2" x2="63921.2" y2="24985.2" gradientUnits="userSpaceOnUse">
<stop stop-color="#7F20CC"/>
<stop offset="0.08" stop-color="#7920CA" stop-opacity="0.89"/>
<stop offset="0.33" stop-color="#671EC5" stop-opacity="0.57"/>
<stop offset="0.55" stop-color="#591DC1" stop-opacity="0.33"/>
<stop offset="0.74" stop-color="#4E1DBE" stop-opacity="0.15"/>
<stop offset="0.9" stop-color="#481CBD" stop-opacity="0.04"/>
<stop offset="1" stop-color="#461CBC" stop-opacity="0"/>
</linearGradient>
<linearGradient id="paint9_linear" x1="38340.5" y1="15467.8" x2="40303.9" y2="15467.8" gradientUnits="userSpaceOnUse">
<stop stop-color="#7F20CC"/>
<stop offset="0.08" stop-color="#7920CA" stop-opacity="0.89"/>
<stop offset="0.33" stop-color="#671EC5" stop-opacity="0.57"/>
<stop offset="0.55" stop-color="#591DC1" stop-opacity="0.33"/>
<stop offset="0.74" stop-color="#4E1DBE" stop-opacity="0.15"/>
<stop offset="0.9" stop-color="#481CBD" stop-opacity="0.04"/>
<stop offset="1" stop-color="#461CBC" stop-opacity="0"/>
</linearGradient>
<linearGradient id="paint10_linear" x1="71192.8" y1="31370.4" x2="78617.5" y2="31370.4" gradientUnits="userSpaceOnUse">
<stop stop-color="#7F20CC"/>
<stop offset="0.08" stop-color="#7920CA" stop-opacity="0.89"/>
<stop offset="0.33" stop-color="#671EC5" stop-opacity="0.57"/>
<stop offset="0.55" stop-color="#591DC1" stop-opacity="0.33"/>
<stop offset="0.74" stop-color="#4E1DBE" stop-opacity="0.15"/>
<stop offset="0.9" stop-color="#481CBD" stop-opacity="0.04"/>
<stop offset="1" stop-color="#461CBC" stop-opacity="0"/>
</linearGradient>
<linearGradient id="paint11_linear" x1="84370.3" y1="40055.2" x2="95485.8" y2="40055.2" gradientUnits="userSpaceOnUse">
<stop stop-color="#7F20CC"/>
<stop offset="0.08" stop-color="#7920CA" stop-opacity="0.89"/>
<stop offset="0.33" stop-color="#671EC5" stop-opacity="0.57"/>
<stop offset="0.55" stop-color="#591DC1" stop-opacity="0.33"/>
<stop offset="0.74" stop-color="#4E1DBE" stop-opacity="0.15"/>
<stop offset="0.9" stop-color="#481CBD" stop-opacity="0.04"/>
<stop offset="1" stop-color="#461CBC" stop-opacity="0"/>
</linearGradient>
<linearGradient id="paint12_linear" x1="87313.2" y1="42899.5" x2="99539.8" y2="42899.5" gradientUnits="userSpaceOnUse">
<stop stop-color="#7F20CC"/>
<stop offset="0.08" stop-color="#7920CA" stop-opacity="0.89"/>
<stop offset="0.33" stop-color="#671EC5" stop-opacity="0.57"/>
<stop offset="0.55" stop-color="#591DC1" stop-opacity="0.33"/>
<stop offset="0.74" stop-color="#4E1DBE" stop-opacity="0.15"/>
<stop offset="0.9" stop-color="#481CBD" stop-opacity="0.04"/>
<stop offset="1" stop-color="#461CBC" stop-opacity="0"/>
</linearGradient>
<linearGradient id="paint13_linear" x1="89448.1" y1="46696" x2="102885" y2="46696" gradientUnits="userSpaceOnUse">
<stop stop-color="#7F20CC"/>
<stop offset="0.08" stop-color="#7920CA" stop-opacity="0.89"/>
<stop offset="0.33" stop-color="#671EC5" stop-opacity="0.57"/>
<stop offset="0.55" stop-color="#591DC1" stop-opacity="0.33"/>
<stop offset="0.74" stop-color="#4E1DBE" stop-opacity="0.15"/>
<stop offset="0.9" stop-color="#481CBD" stop-opacity="0.04"/>
<stop offset="1" stop-color="#461CBC" stop-opacity="0"/>
</linearGradient>
<linearGradient id="paint14_linear" x1="79222.5" y1="36301.7" x2="88734.6" y2="36301.7" gradientUnits="userSpaceOnUse">
<stop stop-color="#7F20CC"/>
<stop offset="0.08" stop-color="#7920CA" stop-opacity="0.89"/>
<stop offset="0.33" stop-color="#671EC5" stop-opacity="0.57"/>
<stop offset="0.55" stop-color="#591DC1" stop-opacity="0.33"/>
<stop offset="0.74" stop-color="#4E1DBE" stop-opacity="0.15"/>
<stop offset="0.9" stop-color="#481CBD" stop-opacity="0.04"/>
<stop offset="1" stop-color="#461CBC" stop-opacity="0"/>
</linearGradient>
</defs>
</svg>
