<svg width="1440" height="749" viewBox="0 0 1440 749" fill="none" xmlns="http://www.w3.org/2000/svg">
<path d="M1440.75 -122H-20V851.946H1440.75V-122Z" fill="url(#paint0_linear)"/>
<path d="M-235 895.82H1495.84V162.107C1490.64 157.484 1485.51 152.842 1480.43 148.18L1472.09 139.492C1426.91 163.14 1381.1 187.196 1343.94 222.141C1288.35 274.384 1256.66 346.358 1217.34 411.691C1178.02 477.023 1123.85 540.972 1049.29 557.51C985.177 571.769 918.508 547.771 861.539 515.026C804.57 482.282 752.645 440.52 692.52 414.106C586.411 367.474 462.695 373.2 352.729 409.977C242.764 446.753 144.737 512.221 53.1385 583.222C4.40776 621.011 -42.9142 660.547 -88.8273 701.829C-149.341 756.273 -210.323 820.826 -235 895.82Z" fill="url(#paint1_linear)"/>
<path d="M-43 -57V490.202C11.7685 438.057 43.2624 366.725 82.3521 301.919C121.754 236.586 175.938 172.637 250.397 156.099C314.515 141.86 381.183 165.839 438.153 198.583C495.122 231.327 547.145 273.09 607.172 299.464C713.281 346.097 836.997 340.37 946.982 303.594C1056.97 266.818 1203.5 210 1303 158.5C1416.5 94.4999 1564.5 102 1447.5 34.4999C1471.82 12.8941 1496.27 2.71088 1518 -21.5001L-43 -57Z" fill="#27004B"/>
<path d="M1527 555.445C1517.4 572.606 1507.82 589.748 1497.78 606.48C1458.4 671.812 1404.3 735.762 1329.74 752.299C1265.62 766.558 1198.95 742.56 1141.98 709.816C1085.01 677.072 1033.09 635.309 972.965 608.895C866.856 562.263 743.14 567.99 633.175 604.766C523.209 641.542 425.202 707.011 333.603 778.011C285.21 815.567 238.193 854.836 192.553 895.82H1527V555.445Z" fill="url(#paint2_linear)"/>
<path d="M-54.5093 -152.146V37.2667C-22.0463 29.3383 7.97949 13.5747 32.9412 -8.64511C51.9505 -25.6502 67.9993 -46.1615 89.4236 -59.9721C138.7 -91.7422 203.635 -81.1652 259.339 -62.9134C315.042 -44.6616 371.446 -19.4949 429.76 -25.5333C496.954 -32.5847 554.255 -87.4179 571.024 -152.146H-54.5093Z" fill="url(#paint3_linear)"/>
<path d="M-91.8851 913.351V404.483C-26.8189 422.369 30.7081 460.843 72.0894 514.15C126.916 585.462 149.996 679.896 216.003 741.079C261.208 782.998 321.391 804.269 380.659 821.235C439.927 838.201 500.986 852.129 554.274 883.081C569.184 891.719 583.17 901.862 596.013 913.351H-91.8851Z" fill="#430078"/>
<path style="mix-blend-mode:multiply" opacity="0.22" d="M166.421 284.427C167.987 274.774 161.433 265.679 151.782 264.112C142.13 262.546 133.036 269.1 131.469 278.753C129.903 288.406 136.457 297.501 146.108 299.068C155.76 300.634 164.854 294.08 166.421 284.427Z" fill="url(#paint4_radial)"/>
<path style="mix-blend-mode:multiply" opacity="0.22" d="M186.095 541.129C197.603 529.619 197.603 510.959 186.095 499.449C174.587 487.94 155.928 487.94 144.42 499.449C132.912 510.959 132.912 529.619 144.42 541.129C155.928 552.638 174.587 552.638 186.095 541.129Z" fill="url(#paint5_radial)"/>
<path style="mix-blend-mode:multiply" opacity="0.22" d="M1458.6 178.116C1477.89 174.802 1490.83 156.481 1487.52 137.195C1484.21 117.909 1465.89 104.961 1446.6 108.275C1427.32 111.589 1414.37 129.91 1417.69 149.196C1421 168.482 1439.32 181.43 1458.6 178.116Z" fill="url(#paint6_radial)"/>
<path d="M1330.43 44.6637L1319.55 55.5449L1330.43 66.4261L1341.31 55.5449L1330.43 44.6637Z" fill="white"/>
<path d="M1218.08 701.479L1206.9 693.239C1206.04 692.602 1205.47 691.65 1205.31 690.591C1205.15 689.533 1205.41 688.454 1206.04 687.59C1206.68 686.73 1207.63 686.157 1208.69 685.996C1209.75 685.836 1210.83 686.101 1211.69 686.733L1217.98 691.389C1218.68 691.909 1219.53 692.19 1220.41 692.19C1221.28 692.19 1222.13 691.909 1222.83 691.389L1232.26 684.181C1232.95 683.657 1233.8 683.373 1234.67 683.373C1235.55 683.373 1236.39 683.657 1237.09 684.181L1246.65 691.233C1247.35 691.75 1248.2 692.029 1249.08 692.029C1249.95 692.029 1250.8 691.75 1251.5 691.233L1260.93 684.026C1261.63 683.499 1262.48 683.215 1263.35 683.215C1264.23 683.215 1265.08 683.499 1265.78 684.026L1275.32 691.057C1276.02 691.584 1276.87 691.868 1277.75 691.868C1278.62 691.868 1279.47 691.584 1280.17 691.057L1289.62 683.85C1290.32 683.335 1291.16 683.056 1292.03 683.056C1292.9 683.056 1293.75 683.335 1294.45 683.85L1305.65 692.09C1306.07 692.405 1306.43 692.802 1306.71 693.257C1306.98 693.711 1307.16 694.216 1307.24 694.74C1307.32 695.265 1307.29 695.8 1307.16 696.315C1307.03 696.829 1306.8 697.313 1306.48 697.739C1306.17 698.166 1305.78 698.528 1305.33 698.802C1304.87 699.077 1304.37 699.259 1303.85 699.339C1303.33 699.419 1302.79 699.394 1302.28 699.266C1301.76 699.139 1301.28 698.911 1300.86 698.596L1294.53 693.94C1293.83 693.416 1292.98 693.132 1292.11 693.132C1291.24 693.132 1290.39 693.416 1289.7 693.94L1280.25 701.148C1279.55 701.672 1278.71 701.956 1277.83 701.956C1276.96 701.956 1276.12 701.672 1275.42 701.148L1265.86 694.096C1265.16 693.58 1264.31 693.302 1263.44 693.302C1262.57 693.302 1261.73 693.58 1261.03 694.096L1251.58 701.303C1250.88 701.83 1250.03 702.114 1249.15 702.114C1248.28 702.114 1247.43 701.83 1246.73 701.303L1237.19 694.272C1236.49 693.745 1235.64 693.461 1234.76 693.461C1233.89 693.461 1233.04 693.745 1232.34 694.272L1222.91 701.459C1222.21 701.984 1221.37 702.269 1220.5 702.273C1219.63 702.276 1218.78 701.998 1218.08 701.479Z" fill="white"/>
<path d="M107.868 145.375L96.7079 137.135C95.8478 136.498 95.2749 135.546 95.1143 134.487C94.9538 133.429 95.2186 132.35 95.8509 131.486C96.4847 130.627 97.433 130.055 98.4882 129.894C99.5433 129.733 100.619 129.998 101.48 130.629L107.79 135.285C108.486 135.809 109.334 136.093 110.205 136.093C111.077 136.093 111.924 135.809 112.62 135.285L122.067 128.077C122.766 127.562 123.613 127.283 124.482 127.283C125.351 127.283 126.197 127.562 126.897 128.077L136.46 135.129C137.156 135.653 138.004 135.937 138.875 135.937C139.746 135.937 140.594 135.653 141.29 135.129L150.736 127.922C151.432 127.397 152.28 127.113 153.151 127.113C154.023 127.113 154.871 127.397 155.567 127.922L165.13 134.973C165.829 135.489 166.676 135.767 167.545 135.767C168.414 135.767 169.26 135.489 169.96 134.973L179.406 127.766C180.105 127.24 180.956 126.955 181.831 126.955C182.706 126.955 183.557 127.24 184.256 127.766L195.435 136.005C195.863 136.318 196.224 136.711 196.499 137.164C196.773 137.616 196.956 138.118 197.035 138.642C197.115 139.165 197.09 139.699 196.963 140.212C196.835 140.726 196.607 141.21 196.292 141.635C195.98 142.062 195.587 142.424 195.134 142.698C194.682 142.973 194.18 143.155 193.656 143.235C193.133 143.315 192.599 143.29 192.086 143.162C191.572 143.035 191.089 142.807 190.664 142.492L184.334 137.836C183.638 137.312 182.79 137.028 181.919 137.028C181.047 137.028 180.199 137.312 179.503 137.836L170.057 145.044C169.358 145.57 168.507 145.854 167.632 145.854C166.758 145.854 165.906 145.57 165.208 145.044L155.664 138.012C154.965 137.485 154.114 137.201 153.239 137.201C152.364 137.201 151.513 137.485 150.814 138.012L141.368 145.199C140.672 145.724 139.824 146.008 138.953 146.008C138.081 146.008 137.234 145.724 136.538 145.199L126.994 138.09C126.295 137.563 125.444 137.279 124.569 137.279C123.695 137.279 122.843 137.563 122.145 138.09L112.718 145.297C112.025 145.828 111.179 146.123 110.306 146.137C109.432 146.151 108.578 145.884 107.868 145.375Z" fill="white"/>
<path d="M1441.3 656.229C1487.56 656.229 1525.05 618.729 1525.05 572.47C1525.05 526.211 1487.56 488.71 1441.3 488.71C1395.05 488.71 1357.55 526.211 1357.55 572.47C1357.55 618.729 1395.05 656.229 1441.3 656.229Z" stroke="white" stroke-width="2" stroke-linecap="round" stroke-linejoin="round"/>
<path d="M1032.78 367.318C1032.66 367.571 1032.52 367.844 1032.41 368.116C1031.93 369.211 1031.79 370.423 1032 371.598C1032.21 372.774 1032.77 373.86 1033.6 374.72L1172.52 520.247C1173.34 521.109 1174.4 521.71 1175.56 521.973C1176.72 522.237 1177.94 522.151 1179.05 521.727L1179.89 521.396L1032.78 367.318Z" fill="url(#paint7_linear)"/>
<path d="M1040.43 353.118C1039.72 354.227 1039.4 355.544 1039.53 356.856C1039.66 358.168 1040.24 359.398 1041.15 360.344L1187.11 513.332C1188.02 514.292 1189.22 514.919 1190.52 515.11C1191.83 515.301 1193.16 515.045 1194.3 514.384L1040.43 353.118Z" fill="url(#paint8_linear)"/>
<path d="M1049.66 340.671C1048.69 341.839 1047.72 343.008 1046.78 344.196L1203.69 508.481C1204.93 507.605 1206.14 506.689 1207.35 505.774L1049.66 340.671Z" fill="url(#paint9_linear)"/>
<path d="M1023.35 401.893C1023.23 403.003 1023.12 404.113 1023.04 405.243C1022.98 406.083 1023.09 406.926 1023.38 407.718C1023.66 408.51 1024.11 409.233 1024.7 409.84L1136.94 527.473C1137.51 528.102 1138.21 528.601 1138.99 528.937C1139.77 529.273 1140.61 529.438 1141.46 529.421C1142.59 529.421 1143.7 529.324 1144.83 529.246L1023.35 401.893Z" fill="url(#paint10_linear)"/>
<path d="M1028.94 452.187C1030.19 455.791 1031.63 459.297 1033.21 462.745C1033.51 463.357 1033.89 463.921 1034.36 464.42L1082.93 515.28C1083.4 515.769 1083.95 516.182 1084.55 516.507C1087.91 518.264 1091.36 519.85 1094.89 521.26L1028.94 452.187Z" fill="url(#paint11_linear)"/>
<path d="M1026.92 383.388L1026.39 385.336C1026.14 386.335 1026.15 387.381 1026.41 388.377C1026.68 389.372 1027.19 390.283 1027.91 391.024L1155.93 525.194C1156.64 525.939 1157.53 526.492 1158.51 526.802C1159.49 527.112 1160.53 527.169 1161.54 526.967L1163.49 526.538L1026.92 383.388Z" fill="url(#paint12_linear)"/>
<path d="M1022.98 423.729C1023.14 425.56 1023.33 427.391 1023.57 429.222C1023.75 430.488 1024.32 431.667 1025.2 432.591L1114.23 525.915C1115.12 526.839 1116.28 527.465 1117.54 527.707C1119.35 528.019 1121.16 528.311 1122.99 528.545L1022.98 423.729Z" fill="url(#paint13_linear)"/>
<path d="M1072.41 319.964C1071.15 320.821 1069.92 321.717 1068.71 322.614L1226.12 487.6C1227.08 486.431 1228.07 485.243 1228.95 484.016L1072.41 319.964Z" fill="url(#paint14_linear)"/>
<path d="M1162.88 303.661C1162.02 302.752 1160.9 302.132 1159.67 301.888C1157.82 301.518 1155.93 301.206 1154.04 300.933L1251.77 403.373C1251.58 401.425 1251.35 399.575 1251.07 397.685C1250.89 396.447 1250.32 395.297 1249.46 394.393L1162.88 303.661Z" fill="url(#paint15_linear)"/>
<path d="M1195.74 315.874C1195.32 315.427 1194.83 315.047 1194.3 314.744C1190.67 312.671 1186.92 310.805 1183.08 309.154L1244.92 373.98C1243.45 370.064 1241.77 366.233 1239.87 362.506C1239.59 361.96 1239.23 361.456 1238.8 361.007L1195.74 315.874Z" fill="url(#paint16_linear)"/>
<path d="M1139.76 301.713C1139.2 301.098 1138.51 300.607 1137.75 300.272C1136.98 299.936 1136.16 299.764 1135.32 299.765C1134.15 299.765 1132.99 299.804 1131.82 299.882L1251.77 425.599C1251.89 424.449 1251.99 423.281 1252.07 422.112C1252.11 421.284 1251.98 420.457 1251.69 419.68C1251.41 418.904 1250.96 418.193 1250.39 417.593L1139.76 301.713Z" fill="url(#paint17_linear)"/>
<path d="M1103.85 308.452C1103.04 307.594 1102 306.992 1100.85 306.722C1099.71 306.452 1098.51 306.525 1097.4 306.933L1096.47 307.284L1242.74 460.583L1243.13 459.667C1243.58 458.583 1243.71 457.39 1243.49 456.234C1243.28 455.078 1242.73 454.01 1241.92 453.161L1103.85 308.452Z" fill="url(#paint18_linear)"/>
<path d="M1089.05 315.153C1088.15 314.198 1086.95 313.574 1085.66 313.379C1084.36 313.185 1083.04 313.432 1081.9 314.082H1081.8L1235.22 474.88C1235.92 473.739 1236.23 472.398 1236.09 471.066C1235.94 469.733 1235.37 468.486 1234.44 467.517L1089.05 315.153Z" fill="url(#paint19_linear)"/>
<path d="M1218.82 495.645L1060.34 329.529C1059.23 330.541 1058.12 331.574 1057.05 332.626L1215.59 498.781C1216.68 497.749 1217.77 496.697 1218.82 495.645Z" fill="url(#paint20_linear)"/>
<path d="M1120.54 303.661C1119.84 302.919 1118.97 302.366 1118.01 302.052C1117.04 301.739 1116.01 301.676 1115.01 301.868C1114.33 301.985 1113.65 302.141 1113.06 302.278L1248.48 444.318C1248.66 443.656 1248.83 442.993 1248.99 442.37C1249.23 441.383 1249.22 440.35 1248.95 439.369C1248.69 438.389 1248.18 437.491 1247.47 436.76L1120.54 303.661Z" fill="url(#paint21_linear)"/>
<g opacity="0.36">
<path opacity="0.36" d="M244.108 748.851C242.16 750.195 240.212 751.598 238.265 753.02L484.236 1010.75C485.755 1008.8 487.236 1007.04 488.677 1005.16L244.108 748.851Z" fill="url(#paint22_linear)"/>
<path opacity="0.36" d="M385.47 723.412C384.122 721.987 382.367 721.014 380.445 720.626C377.523 720.061 374.602 719.555 371.622 719.127L524.319 879.166C524.027 876.185 523.677 873.224 523.229 870.283C522.945 868.346 522.059 866.547 520.697 865.141L385.47 723.412Z" fill="url(#paint23_linear)"/>
<path opacity="0.36" d="M436.771 742.462C436.11 741.776 435.356 741.186 434.532 740.709C428.852 737.476 423.001 734.557 417.003 731.963L513.627 833.254C511.323 827.139 508.683 821.156 505.719 815.333C505.289 814.48 504.731 813.698 504.064 813.015L436.771 742.462Z" fill="url(#paint24_linear)"/>
<path opacity="0.36" d="M349.321 720.237C348.431 719.295 347.355 718.549 346.162 718.046C344.968 717.543 343.683 717.294 342.387 717.315C340.576 717.315 338.745 717.412 336.934 717.49L524.339 913.896C524.495 912.085 524.65 910.273 524.767 908.462C524.847 907.167 524.656 905.869 524.206 904.652C523.757 903.434 523.059 902.324 522.157 901.391L349.321 720.237Z" fill="url(#paint25_linear)"/>
<path opacity="0.36" d="M293.209 730.892C291.953 729.551 290.331 728.609 288.544 728.183C286.757 727.757 284.884 727.866 283.159 728.496L281.698 729.041L510.316 968.535L510.919 967.113C511.627 965.414 511.82 963.544 511.474 961.736C511.127 959.928 510.257 958.262 508.972 956.945L293.209 730.892Z" fill="url(#paint26_linear)"/>
<path opacity="0.36" d="M270.09 741.371C268.68 739.894 266.82 738.924 264.801 738.614C262.783 738.304 260.718 738.671 258.929 739.657H258.793L498.454 990.936C499.556 989.157 500.036 987.063 499.817 984.982C499.599 982.902 498.694 980.953 497.247 979.443L270.09 741.371Z" fill="url(#paint27_linear)"/>
<path opacity="0.36" d="M319.307 723.509C318.214 722.352 316.847 721.488 315.333 720.998C313.818 720.508 312.204 720.407 310.64 720.704L307.505 721.367L519.1 943.134C519.372 942.082 519.645 941.05 519.898 940.017C520.268 938.47 520.242 936.854 519.823 935.319C519.405 933.784 518.607 932.378 517.503 931.232L319.307 723.509Z" fill="url(#paint28_linear)"/>
</g>
<path d="M1338.08 112.767H1320.55V406.899H1338.08V112.767Z" stroke="white" stroke-miterlimit="10"/>
<path d="M73.1216 711.705H55.5927V1005.84H73.1216V711.705Z" stroke="white" stroke-miterlimit="10"/>
<path d="M-14.8547 501.547C13.3816 501.547 36.2717 478.654 36.2717 450.415C36.2717 422.175 13.3816 399.283 -14.8547 399.283C-43.091 399.283 -65.9811 422.175 -65.9811 450.415C-65.9811 478.654 -43.091 501.547 -14.8547 501.547Z" stroke="white" stroke-width="5" stroke-miterlimit="10"/>
<defs>
<linearGradient id="paint0_linear" x1="-21.8308" y1="-109.436" x2="1427.33" y2="829.298" gradientUnits="userSpaceOnUse">
<stop stop-color="#562F88"/>
<stop offset="0.33" stop-color="#4A1A7E"/>
<stop offset="0.73" stop-color="#3F0775"/>
<stop offset="1" stop-color="#3B0072"/>
</linearGradient>
<linearGradient id="paint1_linear" x1="866.876" y1="1207.58" x2="515.522" y2="199.434" gradientUnits="userSpaceOnUse">
<stop stop-color="#8D00FF"/>
<stop offset="0.08" stop-color="#7920CA" stop-opacity="0.89"/>
<stop offset="0.33" stop-color="#671EC5" stop-opacity="0.57"/>
<stop offset="0.55" stop-color="#591DC1" stop-opacity="0.33"/>
<stop offset="0.74" stop-color="#4E1DBE" stop-opacity="0.15"/>
<stop offset="0.9" stop-color="#481CBD" stop-opacity="0.04"/>
<stop offset="1" stop-color="#27004B"/>
</linearGradient>
<linearGradient id="paint2_linear" x1="545021" y1="92191.1" x2="556644" y2="267964" gradientUnits="userSpaceOnUse">
<stop stop-color="#27004B" stop-opacity="0.33"/>
<stop offset="0.08" stop-color="#7920CA" stop-opacity="0.89"/>
<stop offset="0.33" stop-color="#671EC5" stop-opacity="0.57"/>
<stop offset="0.55" stop-color="#591DC1" stop-opacity="0.33"/>
<stop offset="0.74" stop-color="#4E1DBE" stop-opacity="0.15"/>
<stop offset="0.9" stop-color="#481CBD" stop-opacity="0.04"/>
<stop offset="1" stop-color="#461CBC" stop-opacity="0"/>
</linearGradient>
<linearGradient id="paint3_linear" x1="622.209" y1="102.209" x2="-352.967" y2="-325.447" gradientUnits="userSpaceOnUse">
<stop stop-color="#FF209A"/>
<stop offset="0.21" stop-color="#CA1FA4" stop-opacity="0.71"/>
<stop offset="0.43" stop-color="#9B1EAC" stop-opacity="0.46"/>
<stop offset="0.62" stop-color="#761DB3" stop-opacity="0.26"/>
<stop offset="0.78" stop-color="#5C1CB8" stop-opacity="0.12"/>
<stop offset="0.91" stop-color="#4C1CBB" stop-opacity="0.03"/>
<stop offset="1" stop-color="#461CBC" stop-opacity="0"/>
</linearGradient>
<radialGradient id="paint4_radial" cx="0" cy="0" r="1" gradientUnits="userSpaceOnUse" gradientTransform="translate(3192.68 7617.68) scale(271.938 271.97)">
<stop offset="0.7" stop-color="#000024"/>
<stop offset="0.84" stop-color="#101032" stop-opacity="0.94"/>
<stop offset="0.91" stop-color="#474761" stop-opacity="0.72"/>
<stop offset="0.97" stop-color="#A4A4B1" stop-opacity="0.36"/>
<stop offset="1" stop-color="white" stop-opacity="0"/>
</radialGradient>
<radialGradient id="paint5_radial" cx="0" cy="0" r="1" gradientUnits="userSpaceOnUse" gradientTransform="translate(5725.34 19954.5) scale(752.62 752.706)">
<stop offset="0.7" stop-color="#000024"/>
<stop offset="0.84" stop-color="#101032" stop-opacity="0.94"/>
<stop offset="0.91" stop-color="#474761" stop-opacity="0.72"/>
<stop offset="0.97" stop-color="#A4A4B1" stop-opacity="0.36"/>
<stop offset="1" stop-color="white" stop-opacity="0"/>
</radialGradient>
<radialGradient id="paint6_radial" cx="0" cy="0" r="1" gradientUnits="userSpaceOnUse" gradientTransform="translate(54971 9786.32) scale(1088.35 1088.48)">
<stop offset="0.7" stop-color="#000024"/>
<stop offset="0.84" stop-color="#101032" stop-opacity="0.94"/>
<stop offset="0.91" stop-color="#474761" stop-opacity="0.72"/>
<stop offset="0.97" stop-color="#A4A4B1" stop-opacity="0.36"/>
<stop offset="1" stop-color="white" stop-opacity="0"/>
</radialGradient>
<linearGradient id="paint7_linear" x1="80912" y1="45479.2" x2="92149.6" y2="45479.2" gradientUnits="userSpaceOnUse">
<stop stop-color="#7F20CC"/>
<stop offset="0.08" stop-color="#7920CA" stop-opacity="0.89"/>
<stop offset="0.33" stop-color="#671EC5" stop-opacity="0.57"/>
<stop offset="0.55" stop-color="#591DC1" stop-opacity="0.33"/>
<stop offset="0.74" stop-color="#4E1DBE" stop-opacity="0.15"/>
<stop offset="0.9" stop-color="#481CBD" stop-opacity="0.04"/>
<stop offset="1" stop-color="#461CBC" stop-opacity="0"/>
</linearGradient>
<linearGradient id="paint8_linear" x1="85200.8" y1="46700.7" x2="97505.3" y2="46700.7" gradientUnits="userSpaceOnUse">
<stop stop-color="#7F20CC"/>
<stop offset="0.08" stop-color="#7920CA" stop-opacity="0.89"/>
<stop offset="0.33" stop-color="#671EC5" stop-opacity="0.57"/>
<stop offset="0.55" stop-color="#591DC1" stop-opacity="0.33"/>
<stop offset="0.74" stop-color="#4E1DBE" stop-opacity="0.15"/>
<stop offset="0.9" stop-color="#481CBD" stop-opacity="0.04"/>
<stop offset="1" stop-color="#461CBC" stop-opacity="0"/>
</linearGradient>
<linearGradient id="paint9_linear" x1="88947.1" y1="47503.9" x2="102179" y2="47503.9" gradientUnits="userSpaceOnUse">
<stop stop-color="#7F20CC"/>
<stop offset="0.08" stop-color="#7920CA" stop-opacity="0.89"/>
<stop offset="0.33" stop-color="#671EC5" stop-opacity="0.57"/>
<stop offset="0.55" stop-color="#591DC1" stop-opacity="0.33"/>
<stop offset="0.74" stop-color="#4E1DBE" stop-opacity="0.15"/>
<stop offset="0.9" stop-color="#481CBD" stop-opacity="0.04"/>
<stop offset="1" stop-color="#461CBC" stop-opacity="0"/>
</linearGradient>
<linearGradient id="paint10_linear" x1="66217.4" y1="38935" x2="73835.1" y2="38935" gradientUnits="userSpaceOnUse">
<stop stop-color="#7F20CC"/>
<stop offset="0.08" stop-color="#7920CA" stop-opacity="0.89"/>
<stop offset="0.33" stop-color="#671EC5" stop-opacity="0.57"/>
<stop offset="0.55" stop-color="#591DC1" stop-opacity="0.33"/>
<stop offset="0.74" stop-color="#4E1DBE" stop-opacity="0.15"/>
<stop offset="0.9" stop-color="#481CBD" stop-opacity="0.04"/>
<stop offset="1" stop-color="#461CBC" stop-opacity="0"/>
</linearGradient>
<linearGradient id="paint11_linear" x1="36527.4" y1="22070.4" x2="38759.1" y2="22070.4" gradientUnits="userSpaceOnUse">
<stop stop-color="#7F20CC"/>
<stop offset="0.08" stop-color="#7920CA" stop-opacity="0.89"/>
<stop offset="0.33" stop-color="#671EC5" stop-opacity="0.57"/>
<stop offset="0.55" stop-color="#591DC1" stop-opacity="0.33"/>
<stop offset="0.74" stop-color="#4E1DBE" stop-opacity="0.15"/>
<stop offset="0.9" stop-color="#481CBD" stop-opacity="0.04"/>
<stop offset="1" stop-color="#461CBC" stop-opacity="0"/>
</linearGradient>
<linearGradient id="paint12_linear" x1="74728.8" y1="43034.3" x2="84402.9" y2="43034.3" gradientUnits="userSpaceOnUse">
<stop stop-color="#7F20CC"/>
<stop offset="0.08" stop-color="#7920CA" stop-opacity="0.89"/>
<stop offset="0.33" stop-color="#671EC5" stop-opacity="0.57"/>
<stop offset="0.55" stop-color="#591DC1" stop-opacity="0.33"/>
<stop offset="0.74" stop-color="#4E1DBE" stop-opacity="0.15"/>
<stop offset="0.9" stop-color="#481CBD" stop-opacity="0.04"/>
<stop offset="1" stop-color="#461CBC" stop-opacity="0"/>
</linearGradient>
<linearGradient id="paint13_linear" x1="54551.9" y1="32658.9" x2="59687.6" y2="32658.9" gradientUnits="userSpaceOnUse">
<stop stop-color="#7F20CC"/>
<stop offset="0.08" stop-color="#7920CA" stop-opacity="0.89"/>
<stop offset="0.33" stop-color="#671EC5" stop-opacity="0.57"/>
<stop offset="0.55" stop-color="#591DC1" stop-opacity="0.33"/>
<stop offset="0.74" stop-color="#4E1DBE" stop-opacity="0.15"/>
<stop offset="0.9" stop-color="#481CBD" stop-opacity="0.04"/>
<stop offset="1" stop-color="#461CBC" stop-opacity="0"/>
</linearGradient>
<linearGradient id="paint14_linear" x1="90592" y1="45648.6" x2="103775" y2="45648.6" gradientUnits="userSpaceOnUse">
<stop stop-color="#7F20CC"/>
<stop offset="0.08" stop-color="#7920CA" stop-opacity="0.89"/>
<stop offset="0.33" stop-color="#671EC5" stop-opacity="0.57"/>
<stop offset="0.55" stop-color="#591DC1" stop-opacity="0.33"/>
<stop offset="0.74" stop-color="#4E1DBE" stop-opacity="0.15"/>
<stop offset="0.9" stop-color="#481CBD" stop-opacity="0.04"/>
<stop offset="1" stop-color="#461CBC" stop-opacity="0"/>
</linearGradient>
<linearGradient id="paint15_linear" x1="60039.9" y1="25284.9" x2="64944.2" y2="25284.9" gradientUnits="userSpaceOnUse">
<stop stop-color="#7F20CC"/>
<stop offset="0.08" stop-color="#7920CA" stop-opacity="0.89"/>
<stop offset="0.33" stop-color="#671EC5" stop-opacity="0.57"/>
<stop offset="0.55" stop-color="#591DC1" stop-opacity="0.33"/>
<stop offset="0.74" stop-color="#4E1DBE" stop-opacity="0.15"/>
<stop offset="0.9" stop-color="#481CBD" stop-opacity="0.04"/>
<stop offset="1" stop-color="#461CBC" stop-opacity="0"/>
</linearGradient>
<linearGradient id="paint16_linear" x1="39363.5" y1="15767.6" x2="41326.9" y2="15767.6" gradientUnits="userSpaceOnUse">
<stop stop-color="#7F20CC"/>
<stop offset="0.08" stop-color="#7920CA" stop-opacity="0.89"/>
<stop offset="0.33" stop-color="#671EC5" stop-opacity="0.57"/>
<stop offset="0.55" stop-color="#591DC1" stop-opacity="0.33"/>
<stop offset="0.74" stop-color="#4E1DBE" stop-opacity="0.15"/>
<stop offset="0.9" stop-color="#481CBD" stop-opacity="0.04"/>
<stop offset="1" stop-color="#461CBC" stop-opacity="0"/>
</linearGradient>
<linearGradient id="paint17_linear" x1="72215.8" y1="31670.1" x2="79640.5" y2="31670.1" gradientUnits="userSpaceOnUse">
<stop stop-color="#7F20CC"/>
<stop offset="0.08" stop-color="#7920CA" stop-opacity="0.89"/>
<stop offset="0.33" stop-color="#671EC5" stop-opacity="0.57"/>
<stop offset="0.55" stop-color="#591DC1" stop-opacity="0.33"/>
<stop offset="0.74" stop-color="#4E1DBE" stop-opacity="0.15"/>
<stop offset="0.9" stop-color="#481CBD" stop-opacity="0.04"/>
<stop offset="1" stop-color="#461CBC" stop-opacity="0"/>
</linearGradient>
<linearGradient id="paint18_linear" x1="85393.3" y1="40355" x2="96508.8" y2="40355" gradientUnits="userSpaceOnUse">
<stop stop-color="#7F20CC"/>
<stop offset="0.08" stop-color="#7920CA" stop-opacity="0.89"/>
<stop offset="0.33" stop-color="#671EC5" stop-opacity="0.57"/>
<stop offset="0.55" stop-color="#591DC1" stop-opacity="0.33"/>
<stop offset="0.74" stop-color="#4E1DBE" stop-opacity="0.15"/>
<stop offset="0.9" stop-color="#481CBD" stop-opacity="0.04"/>
<stop offset="1" stop-color="#461CBC" stop-opacity="0"/>
</linearGradient>
<linearGradient id="paint19_linear" x1="88336.1" y1="43199.2" x2="100563" y2="43199.2" gradientUnits="userSpaceOnUse">
<stop stop-color="#7F20CC"/>
<stop offset="0.08" stop-color="#7920CA" stop-opacity="0.89"/>
<stop offset="0.33" stop-color="#671EC5" stop-opacity="0.57"/>
<stop offset="0.55" stop-color="#591DC1" stop-opacity="0.33"/>
<stop offset="0.74" stop-color="#4E1DBE" stop-opacity="0.15"/>
<stop offset="0.9" stop-color="#481CBD" stop-opacity="0.04"/>
<stop offset="1" stop-color="#461CBC" stop-opacity="0"/>
</linearGradient>
<linearGradient id="paint20_linear" x1="90471.1" y1="46995.8" x2="103908" y2="46995.8" gradientUnits="userSpaceOnUse">
<stop stop-color="#7F20CC"/>
<stop offset="0.08" stop-color="#7920CA" stop-opacity="0.89"/>
<stop offset="0.33" stop-color="#671EC5" stop-opacity="0.57"/>
<stop offset="0.55" stop-color="#591DC1" stop-opacity="0.33"/>
<stop offset="0.74" stop-color="#4E1DBE" stop-opacity="0.15"/>
<stop offset="0.9" stop-color="#481CBD" stop-opacity="0.04"/>
<stop offset="1" stop-color="#461CBC" stop-opacity="0"/>
</linearGradient>
<linearGradient id="paint21_linear" x1="80245.5" y1="36601.5" x2="89757.5" y2="36601.5" gradientUnits="userSpaceOnUse">
<stop stop-color="#7F20CC"/>
<stop offset="0.08" stop-color="#7920CA" stop-opacity="0.89"/>
<stop offset="0.33" stop-color="#671EC5" stop-opacity="0.57"/>
<stop offset="0.55" stop-color="#591DC1" stop-opacity="0.33"/>
<stop offset="0.74" stop-color="#4E1DBE" stop-opacity="0.15"/>
<stop offset="0.9" stop-color="#481CBD" stop-opacity="0.04"/>
<stop offset="1" stop-color="#461CBC" stop-opacity="0"/>
</linearGradient>
<linearGradient id="paint22_linear" x1="33380.3" y1="135567" x2="65568.3" y2="135567" gradientUnits="userSpaceOnUse">
<stop stop-color="white"/>
<stop offset="0.21" stop-color="#CABEEC" stop-opacity="0.71"/>
<stop offset="0.43" stop-color="#9B84DB" stop-opacity="0.46"/>
<stop offset="0.62" stop-color="#7657CE" stop-opacity="0.26"/>
<stop offset="0.78" stop-color="#5C37C4" stop-opacity="0.12"/>
<stop offset="0.91" stop-color="#4C23BE" stop-opacity="0.03"/>
<stop offset="1" stop-color="#461CBC" stop-opacity="0"/>
</linearGradient>
<linearGradient id="paint23_linear" x1="31031.8" y1="76476.8" x2="43003.3" y2="76476.8" gradientUnits="userSpaceOnUse">
<stop stop-color="white"/>
<stop offset="0.21" stop-color="#CABEEC" stop-opacity="0.71"/>
<stop offset="0.43" stop-color="#9B84DB" stop-opacity="0.46"/>
<stop offset="0.62" stop-color="#7657CE" stop-opacity="0.26"/>
<stop offset="0.78" stop-color="#5C37C4" stop-opacity="0.12"/>
<stop offset="0.91" stop-color="#4C23BE" stop-opacity="0.03"/>
<stop offset="1" stop-color="#461CBC" stop-opacity="0"/>
</linearGradient>
<linearGradient id="paint24_linear" x1="22069.5" y1="47819.9" x2="26863" y2="47819.9" gradientUnits="userSpaceOnUse">
<stop stop-color="white"/>
<stop offset="0.21" stop-color="#CABEEC" stop-opacity="0.71"/>
<stop offset="0.43" stop-color="#9B84DB" stop-opacity="0.46"/>
<stop offset="0.62" stop-color="#7657CE" stop-opacity="0.26"/>
<stop offset="0.78" stop-color="#5C37C4" stop-opacity="0.12"/>
<stop offset="0.91" stop-color="#4C23BE" stop-opacity="0.03"/>
<stop offset="1" stop-color="#461CBC" stop-opacity="0"/>
</linearGradient>
<linearGradient id="paint25_linear" x1="34709.9" y1="95434.9" x2="52828.2" y2="95434.9" gradientUnits="userSpaceOnUse">
<stop stop-color="white"/>
<stop offset="0.21" stop-color="#CABEEC" stop-opacity="0.71"/>
<stop offset="0.43" stop-color="#9B84DB" stop-opacity="0.46"/>
<stop offset="0.62" stop-color="#7657CE" stop-opacity="0.26"/>
<stop offset="0.78" stop-color="#5C37C4" stop-opacity="0.12"/>
<stop offset="0.91" stop-color="#4C23BE" stop-opacity="0.03"/>
<stop offset="1" stop-color="#461CBC" stop-opacity="0"/>
</linearGradient>
<linearGradient id="paint26_linear" x1="35835.5" y1="120687" x2="62973.4" y2="120687" gradientUnits="userSpaceOnUse">
<stop stop-color="white"/>
<stop offset="0.21" stop-color="#CABEEC" stop-opacity="0.71"/>
<stop offset="0.43" stop-color="#9B84DB" stop-opacity="0.46"/>
<stop offset="0.62" stop-color="#7657CE" stop-opacity="0.26"/>
<stop offset="0.78" stop-color="#5C37C4" stop-opacity="0.12"/>
<stop offset="0.91" stop-color="#4C23BE" stop-opacity="0.03"/>
<stop offset="1" stop-color="#461CBC" stop-opacity="0"/>
</linearGradient>
<linearGradient id="paint27_linear" x1="34698.9" y1="128727" x2="64536.8" y2="128727" gradientUnits="userSpaceOnUse">
<stop stop-color="white"/>
<stop offset="0.21" stop-color="#CABEEC" stop-opacity="0.71"/>
<stop offset="0.43" stop-color="#9B84DB" stop-opacity="0.46"/>
<stop offset="0.62" stop-color="#7657CE" stop-opacity="0.26"/>
<stop offset="0.78" stop-color="#5C37C4" stop-opacity="0.12"/>
<stop offset="0.91" stop-color="#4C23BE" stop-opacity="0.03"/>
<stop offset="1" stop-color="#461CBC" stop-opacity="0"/>
</linearGradient>
<linearGradient id="paint28_linear" x1="36005.5" y1="109826" x2="59225.1" y2="109826" gradientUnits="userSpaceOnUse">
<stop stop-color="white"/>
<stop offset="0.21" stop-color="#CABEEC" stop-opacity="0.71"/>
<stop offset="0.43" stop-color="#9B84DB" stop-opacity="0.46"/>
<stop offset="0.62" stop-color="#7657CE" stop-opacity="0.26"/>
<stop offset="0.78" stop-color="#5C37C4" stop-opacity="0.12"/>
<stop offset="0.91" stop-color="#4C23BE" stop-opacity="0.03"/>
<stop offset="1" stop-color="#461CBC" stop-opacity="0"/>
</linearGradient>
</defs>
</svg>
