<svg width="745" height="426" viewBox="0 0 745 426" fill="none" xmlns="http://www.w3.org/2000/svg">
<path d="M550.835 331.093C550.835 331.093 521.633 337.207 523.11 342.563C524.588 347.918 555.153 333.403 555.153 333.403C555.153 333.403 577.695 353.531 580.83 363.793C580.83 363.793 547.91 359.141 550.661 363.97C553.413 368.798 587.441 375.226 587.441 375.226C587.441 375.226 602.914 399.025 589.335 409.49C575.756 419.955 565.335 416.435 562.799 413.013C560.263 409.591 550.412 384.955 547.49 386.908C544.568 388.861 546.334 407.517 553.03 415.561C553.03 415.561 523.631 415.793 519.359 401.9C515.087 388.007 521.653 380.444 518.865 371.909C516.077 363.374 511.33 358.248 510.816 363.306C510.301 368.363 517.61 381.746 514.691 390.785C511.772 399.823 510.514 406.68 502.816 395.325C495.117 383.97 487.471 361.035 495.183 352.625L496.146 351.572C495.779 351.879 495.455 352.233 495.183 352.625C492.889 350.888 485.092 350.093 479.209 349.736C478.226 349.736 476.86 349.681 474.95 349.527C474.108 349.498 473.42 349.478 472.942 349.468C460.165 349.625 442.2 359.776 442.2 359.776L440.385 357.417C457.024 343.652 476.975 347.473 476.975 347.473C492.175 349.014 502.878 344.201 502.878 344.201C502.878 344.201 506.36 314.796 529.145 318.42C529.155 318.437 544.005 322.732 550.835 331.093Z" fill="#7F20CC"/>
<path d="M165.844 83.3458C173.621 54.6665 222.089 63.6265 222.089 63.6265C222.089 63.6265 255 113.818 264.572 115.025C274.145 116.232 244.828 66.6099 244.828 66.6099C263.377 64.8173 310.646 87.52 310.646 87.52C310.646 87.52 307.655 146.076 317.231 144.882C326.806 143.688 317.231 92.898 317.231 92.898C335.18 98.276 351.933 119.189 351.933 119.189C372.877 153.247 327.999 178.344 327.999 178.344C327.999 178.344 327.403 198.659 339.966 221.96C339.966 221.96 342.8 226.262 345.683 233.576H340.788C340.389 232.268 339.95 230.999 339.478 229.782C339.48 229.775 339.48 229.768 339.478 229.762C339.478 229.742 339.478 229.726 339.455 229.71C339.127 228.954 338.639 227.878 338.04 226.569C336.546 223.645 335.534 221.486 334.895 219.929C334.893 219.923 334.893 219.918 334.895 219.912C330.413 210.753 323.96 198.786 319.655 196.277C320.102 195.58 320.455 194.826 320.703 194.036L319.655 196.277C311.278 214.204 269.391 217.19 246.056 212.411C222.722 207.632 232.894 201.057 245.457 190.389C258.02 179.721 284.353 182.538 292.13 178.354C299.907 174.17 288.526 169.986 272.982 171.183C257.437 172.38 249.647 187.912 224.517 190.304C199.387 192.695 180.235 145.487 180.235 145.487C197.598 150.865 228.704 141.303 229.899 135.346C231.095 129.389 185.018 129.968 177.844 128.176C170.669 126.383 158.063 112.025 165.844 83.3458Z" fill="#7F20CC"/>
<path d="M630.524 85.4558C619.811 68.3306 590.052 83.6894 590.052 83.6894C590.052 83.6894 578.543 122.804 572.555 125.464C566.566 128.123 575.854 90.1011 575.854 90.1011C563.435 92.584 537.168 116.644 537.168 116.644C537.168 116.644 550.658 154.14 544.195 155.245C537.731 156.351 533.947 121.437 533.947 121.437C523.33 128.463 516.558 145.36 516.558 145.36C509.653 171.628 543.788 179.126 543.788 179.126C543.788 179.126 548.182 192.211 544.604 209.85C544.604 209.85 543.621 213.206 543.176 218.529L546.36 217.567C546.36 216.634 546.396 215.725 546.475 214.839C546.475 214.839 546.475 214.812 546.475 214.799C546.544 214.243 546.645 213.448 546.776 212.48C547.173 210.285 547.405 208.682 547.513 207.544C548.617 200.693 550.462 191.652 552.755 189.175C552.328 188.808 551.95 188.387 551.631 187.922L552.755 189.175C561.738 199.185 589.57 192.895 603.805 185.197C618.039 177.5 610.127 175.223 599.854 170.758C589.58 166.293 572.991 173.293 567.123 172.102C561.256 170.912 567.808 165.956 578.163 163.676C588.519 161.395 596.64 169.97 613.456 166.584C630.271 163.198 633.42 128.732 633.42 128.732C623.195 135.641 601.072 135.539 599.117 131.888C597.161 128.238 627.244 119.569 631.549 116.991C635.854 114.413 641.239 102.594 630.524 85.4558Z" fill="#7F20CC"/>
<path d="M378.892 83.4047C386.39 70.9346 408.022 81.6153 408.022 81.6153C408.022 81.6153 416.811 109.644 421.162 111.485C425.512 113.327 418.331 86.0544 418.331 86.0544C427.311 87.6901 446.538 104.681 446.538 104.681C446.538 104.681 437.299 131.862 441.971 132.575C446.642 133.289 448.919 108.093 448.919 108.093C456.657 113.016 461.751 125.104 461.751 125.104C467.062 143.94 442.567 149.776 442.567 149.776C442.567 149.776 439.57 159.263 442.374 171.916C442.945 173.958 443.324 176.048 443.504 178.161L441.211 177.507C441.211 176.852 441.162 176.198 441.093 175.544C441.091 175.535 441.091 175.526 441.093 175.518C441.034 175.119 440.952 174.536 440.844 173.849C440.516 172.272 440.343 171.121 440.251 170.3C439.366 165.393 437.925 158.89 436.231 157.136C436.534 156.866 436.801 156.559 437.024 156.22L436.231 157.136C429.889 164.461 409.761 160.283 399.409 154.922C389.057 149.56 394.728 147.82 402.073 144.453C409.417 141.087 421.44 145.939 425.66 145.006C429.879 144.074 425.09 140.587 417.601 139.075C410.112 137.564 404.372 143.845 392.215 141.621C380.058 139.396 377.352 114.609 377.352 114.609C384.805 119.454 400.739 119.101 402.102 116.445C403.465 113.788 381.683 107.939 378.541 106.127C375.399 104.315 371.393 95.8781 378.892 83.4047Z" fill="#7F20CC"/>
<path d="M744.07 413.065C744.309 413.131 744.617 413.199 745 413.268C744.689 413.193 744.384 413.124 744.07 413.065Z" fill="#C0D3F8"/>
<path d="M438.328 240.145L453.044 414.881C453.044 414.881 454.587 425.473 446.695 425.493C433.722 425.526 382.125 425.493 382.125 425.493C382.125 425.493 391.887 423.288 391.769 418.329C391.632 412.48 374.57 238.493 374.57 238.493L438.328 240.145Z" fill="#B1C9F6"/>
<path d="M377.938 422.323C380.49 422.323 429.771 422.487 442.407 422.323C447.91 422.254 448.877 417.436 448.923 414.315C448.94 413.44 448.885 412.564 448.755 411.698L448.372 407.157L447.389 395.58L446.528 385.354L445.421 372.214L444.49 361.121L434.033 236.959L370.276 235.323C370.276 235.323 377.46 308.136 382.544 361.137C383.111 367.042 383.652 372.704 384.15 377.991C384.313 379.679 384.47 381.326 384.618 382.934C385.09 387.948 385.519 392.554 385.896 396.621C386.092 398.762 386.274 400.748 386.44 402.578C387.095 409.725 387.468 414.289 387.475 415.159C387.479 415.633 387.437 416.106 387.35 416.572C386.309 422.14 378.895 422.323 377.938 422.323Z" fill="#B1C9F6"/>
<path d="M593.164 145.062L557.318 288.848L552.411 308.541L535.713 375.511H225.526L287.065 145.062H593.164Z" fill="white"/>
<path d="M593.164 145.062L598.134 146.717L542.317 380.516L535.713 375.514L593.164 145.062Z" fill="#B1C9F6"/>
<path d="M542.317 380.516H234.04L225.526 375.514H535.713L542.317 380.516Z" fill="#252535"/>
<path d="M434.062 425.562H367.314V422.395H434.062V425.562Z" fill="#B1C9F6"/>
<path d="M240.553 333.05L290.885 148.107H592.404L593.164 145.062H287.065L236.9 332.637L240.553 333.05Z" fill="#EB3668"/>
<path d="M384.28 380.513L384.624 382.933L447.396 395.597L446.534 385.371L446.124 380.513H384.28Z" fill="#252535"/>
<path opacity="0.4" d="M377.938 422.323C380.49 422.323 429.771 422.487 442.406 422.323C447.91 422.254 448.876 417.436 448.922 414.315L386.446 402.571C387.101 409.719 387.475 414.282 387.481 415.152C387.485 415.626 387.443 416.1 387.357 416.566C386.308 422.14 378.895 422.323 377.938 422.323Z" fill="#B1C9F6"/>
<path d="M399.451 328.859L535.713 375.514L552.411 308.541L399.451 328.859Z" fill="#DEDEDE"/>
<path d="M593.164 145.062H287.065L237.398 330.272H546.992L593.164 145.062Z" fill="url(#paint0_linear)"/>
<path d="M372.395 353.685C373.28 349.141 377.683 345.458 382.223 345.458C386.764 345.458 389.758 349.141 388.857 353.685C387.956 358.229 383.57 361.909 379.029 361.909C374.489 361.909 371.511 358.225 372.395 353.685Z" fill="#F24B46"/>
<path d="M251.836 322.245H538.439L570.897 193.133L573.384 183.231L575.507 174.785L580.486 154.984H298.014L292.546 174.785L290.217 183.231L287.482 193.133L251.836 322.245Z" fill="#FD8857"/>
<path d="M292.546 174.785H575.507L580.486 154.984H298.014L292.546 174.785Z" fill="#1B2251"/>
<path d="M568.801 163.931C569.128 162.563 568.309 161.454 566.94 161.454C566.228 161.49 565.546 161.748 564.989 162.192C564.433 162.637 564.031 163.245 563.841 163.931C563.513 165.298 564.335 166.407 565.701 166.407C566.413 166.372 567.096 166.114 567.652 165.67C568.209 165.225 568.61 164.617 568.801 163.931Z" fill="#DCE7FB"/>
<path d="M560.562 163.931C560.889 162.563 560.07 161.454 558.701 161.454C557.99 161.489 557.307 161.747 556.752 162.192C556.196 162.637 555.795 163.245 555.605 163.931C555.278 165.298 556.097 166.407 557.466 166.407C558.177 166.372 558.859 166.114 559.415 165.669C559.971 165.225 560.372 164.616 560.562 163.931Z" fill="#DCE7FB"/>
<path d="M551.694 163.931C552.021 162.563 551.202 161.454 549.833 161.454C549.121 161.489 548.439 161.747 547.883 162.192C547.328 162.637 546.926 163.245 546.737 163.931C546.409 165.298 547.228 166.407 548.598 166.407C549.309 166.372 549.991 166.114 550.547 165.669C551.103 165.225 551.504 164.616 551.694 163.931Z" fill="#DCE7FB"/>
<path d="M314.97 310.792H527.268L559.576 184.19H350.276L314.97 310.792Z" fill="#242E6C"/>
<path d="M287.518 213.648H335.632L344.432 184.19H295.731L287.518 213.648Z" fill="#6615B2"/>
<path d="M417.325 196.519H444.857L445.99 192.28H418.459L417.325 196.519Z" fill="#F24B46"/>
<path d="M368.517 196.519H413.555L414.688 192.28H369.65L368.517 196.519Z" fill="#F9795A"/>
<path d="M412.7 207.939H461.525L462.655 203.7H413.833L412.7 207.939Z" fill="#F9795A"/>
<path d="M382.999 207.939H408.306L409.44 203.7H384.133L382.999 207.939Z" fill="#EB3668"/>
<path d="M409.021 227.6H436.549L437.683 223.36H410.151L409.021 227.6Z" fill="#C643DB"/>
<path d="M360.209 227.6H405.247L406.38 223.36H361.342L360.209 227.6Z" fill="#F9795A"/>
<path d="M404.392 239.02H453.217L454.347 234.784H405.525L404.392 239.02Z" fill="#EFECEA"/>
<path d="M374.692 239.02H399.999L401.132 234.784H375.825L374.692 239.02Z" fill="#EFECEA"/>
<path d="M433.954 256.698H527.097L528.231 252.458H435.088L433.954 256.698Z" fill="#F24B46"/>
<path d="M400.47 256.698H428.002L429.135 252.458H401.604L400.47 256.698Z" fill="#C643DB"/>
<path d="M351.658 256.698H396.697L397.83 252.458H352.792L351.658 256.698Z" fill="#F9795A"/>
<path d="M496.516 268.118H524.044L525.178 263.878H497.646L496.516 268.118Z" fill="#EFECEA"/>
<path d="M395.845 268.118H444.667L445.8 263.878H396.978L395.845 268.118Z" fill="#EB3668"/>
<path d="M447.704 268.118H492.742L493.875 263.878H448.837L447.704 268.118Z" fill="#F9795A"/>
<path d="M366.144 268.118H391.451L392.585 263.878H367.278L366.144 268.118Z" fill="#F9795A"/>
<path d="M423.379 288.223H516.522L517.656 283.987H424.513L423.379 288.223Z" fill="#F24B46"/>
<path d="M389.896 288.223H417.427L418.561 283.987H391.029L389.896 288.223Z" fill="#C643DB"/>
<path d="M485.941 299.643H513.469L514.603 295.404H487.074L485.941 299.643Z" fill="#EFECEA"/>
<path d="M385.27 299.643H434.092L435.226 295.404H386.403L385.27 299.643Z" fill="#EB3668"/>
<path d="M437.129 299.643H482.167L483.301 295.404H438.262L437.129 299.643Z" fill="#F9795A"/>
<path d="M355.57 299.643H380.877L382.01 295.404H356.703L355.57 299.643Z" fill="#F9795A"/>
<path d="M311.472 222.762L332.648 222.827L333.116 220.907L311.94 220.841L311.472 222.762Z" fill="#EFECEA"/>
<path d="M300.304 222.726L308.268 222.752L308.736 220.831L300.772 220.805L300.304 222.726Z" fill="#EFECEA"/>
<path d="M284.166 222.676L298.237 222.719L298.705 220.799L284.635 220.756L284.166 222.676Z" fill="#EFECEA"/>
<path d="M319.852 227.646L331.462 227.682L331.93 225.761L320.32 225.725L319.852 227.646Z" fill="#EFECEA"/>
<path d="M302.925 227.593L317.919 227.639L318.387 225.719L303.393 225.673L302.925 227.593Z" fill="#EFECEA"/>
<path d="M282.98 227.531L300.16 227.587L300.631 225.663L283.449 225.611L282.98 227.531Z" fill="#EFECEA"/>
<path d="M308.939 233.135L330.115 233.2L330.583 231.28L309.408 231.215L308.939 233.135Z" fill="#EFECEA"/>
<path d="M297.771 233.102L305.735 233.125L306.204 231.205L298.24 231.182L297.771 233.102Z" fill="#EFECEA"/>
<path d="M281.634 233.05L295.704 233.096L296.172 231.175L282.102 231.129L281.634 233.05Z" fill="#EFECEA"/>
<path d="M317.319 238.019L328.929 238.055L329.398 236.135L317.788 236.099L317.319 238.019Z" fill="#EFECEA"/>
<path d="M300.392 237.966L315.386 238.016L315.854 236.095L300.86 236.046L300.392 237.966Z" fill="#EFECEA"/>
<path d="M280.448 237.908L297.627 237.96L298.099 236.04L280.917 235.987L280.448 237.908Z" fill="#EFECEA"/>
<path d="M325.545 188.279L338.295 188.318L338.577 187.16L325.827 187.121L325.545 188.279Z" fill="#EFECEA"/>
<path d="M318.82 188.259L323.616 188.272L323.897 187.118L319.101 187.101L318.82 188.259Z" fill="#EFECEA"/>
<path d="M309.1 188.227L317.575 188.253L317.856 187.098L309.385 187.072L309.1 188.227Z" fill="#EFECEA"/>
<path d="M330.59 191.22L337.581 191.243L337.863 190.085L330.872 190.065L330.59 191.22Z" fill="#EFECEA"/>
<path d="M320.399 191.19L329.427 191.217L329.709 190.062L320.68 190.032L320.399 191.19Z" fill="#EFECEA"/>
<path d="M308.385 191.151L318.734 191.184L319.016 190.026L308.67 189.996L308.385 191.151Z" fill="#EFECEA"/>
<path d="M324.019 194.527L336.772 194.566L337.054 193.408L324.304 193.369L324.019 194.527Z" fill="#EFECEA"/>
<path d="M317.293 194.504L322.089 194.521L322.371 193.362L317.578 193.349L317.293 194.504Z" fill="#EFECEA"/>
<path d="M307.576 194.475L316.051 194.501L316.333 193.346L307.858 193.32L307.576 194.475Z" fill="#EFECEA"/>
<path d="M329.067 197.468L336.058 197.491L336.34 196.333L329.349 196.31L329.067 197.468Z" fill="#EFECEA"/>
<path d="M318.872 197.435L327.9 197.465L328.182 196.307L319.157 196.28L318.872 197.435Z" fill="#EFECEA"/>
<path d="M306.863 197.399L317.208 197.432L317.49 196.274L307.144 196.241L306.863 197.399Z" fill="#EFECEA"/>
<path d="M304.611 250.862L325.787 250.927L326.256 249.007L305.08 248.942L304.611 250.862Z" fill="#EFECEA"/>
<path d="M293.444 250.826L301.408 250.852L301.876 248.932L293.913 248.906L293.444 250.826Z" fill="#EFECEA"/>
<path d="M277.306 250.777L291.376 250.819L291.845 248.899L277.774 248.857L277.306 250.777Z" fill="#EFECEA"/>
<path d="M312.992 255.746L324.602 255.782L325.07 253.862L313.46 253.826L312.992 255.746Z" fill="#EFECEA"/>
<path d="M296.065 255.694L311.059 255.739L311.527 253.819L296.536 253.773L296.065 255.694Z" fill="#EFECEA"/>
<path d="M276.12 255.631L293.303 255.687L293.771 253.767L276.589 253.711L276.12 255.631Z" fill="#EFECEA"/>
<path d="M300.373 268.236L321.545 268.298L322.014 266.378L300.841 266.315L300.373 268.236Z" fill="#EFECEA"/>
<path d="M289.205 268.2L297.165 268.223L297.634 266.306L289.673 266.279L289.205 268.2Z" fill="#EFECEA"/>
<path d="M273.064 268.151L287.137 268.193L287.606 266.273L273.536 266.23L273.064 268.151Z" fill="#EFECEA"/>
<path d="M308.752 273.12L320.362 273.156L320.828 271.235L309.221 271.199L308.752 273.12Z" fill="#EFECEA"/>
<path d="M291.825 273.067L306.816 273.113L307.285 271.193L292.294 271.147L291.825 273.067Z" fill="#EFECEA"/>
<path d="M271.881 273.005L289.06 273.058L289.529 271.137L272.35 271.085L271.881 273.005Z" fill="#EFECEA"/>
<path d="M296.549 283.885L317.725 283.951L318.194 282.031L297.018 281.965L296.549 283.885Z" fill="#EFECEA"/>
<path d="M285.385 283.853L293.345 283.876L293.814 281.955L285.853 281.933L285.385 283.853Z" fill="#EFECEA"/>
<path d="M269.244 283.804L283.318 283.846L283.786 281.926L269.712 281.883L269.244 283.804Z" fill="#EFECEA"/>
<path d="M304.933 288.773L316.54 288.809L317.008 286.889L305.401 286.853L304.933 288.773Z" fill="#EFECEA"/>
<path d="M288.005 288.721L302.996 288.766L303.465 286.846L288.474 286.8L288.005 288.721Z" fill="#EFECEA"/>
<path d="M268.058 288.658L285.241 288.711L285.709 286.79L268.527 286.738L268.058 288.658Z" fill="#EFECEA"/>
<path d="M286.584 307.167C289.988 307.167 293.565 304.403 294.558 301.004C295.551 297.605 293.591 294.841 290.188 294.841C286.784 294.841 283.206 297.605 282.214 301.004C281.221 304.403 283.17 307.167 286.584 307.167ZM289.86 295.966C292.645 295.966 294.247 298.227 293.434 301.004C292.622 303.782 289.7 306.042 286.915 306.042C284.13 306.042 282.532 303.782 283.344 301.004C284.157 298.227 287.066 295.966 289.86 295.966Z" fill="#242E6C"/>
<path d="M287.566 304.138C287.822 304.114 288.064 304.014 288.261 303.85L291.724 301.083C292.189 300.71 292.349 300.101 292.081 299.774C291.812 299.447 291.213 299.427 290.744 299.804L288.297 301.766L287.042 298.871C286.862 298.449 286.302 298.358 285.794 298.662C285.286 298.966 285.018 299.552 285.201 299.97L286.839 303.775C286.89 303.888 286.972 303.984 287.075 304.052C287.178 304.12 287.299 304.158 287.422 304.161L287.566 304.138Z" fill="#242E6C"/>
<path d="M269.549 307.167C272.949 307.167 276.526 304.403 277.522 301.004C278.518 297.605 276.539 294.841 273.152 294.841C269.765 294.841 266.171 297.605 265.178 301.004C264.186 304.403 266.135 307.167 269.549 307.167ZM272.825 295.966C275.606 295.966 277.208 298.227 276.395 301.004C275.583 303.782 272.661 306.042 269.879 306.042C267.098 306.042 265.496 303.782 266.309 301.004C267.121 298.227 270.03 295.966 272.825 295.966Z" fill="#EB3668"/>
<path d="M271.046 302.012C271.3 301.996 271.543 301.905 271.744 301.75C271.945 301.594 272.094 301.383 272.173 301.142L272.94 298.524C272.979 298.426 272.993 298.319 272.981 298.213C272.968 298.108 272.93 298.007 272.868 297.921C272.806 297.834 272.724 297.764 272.628 297.718C272.533 297.671 272.427 297.649 272.321 297.654C272.067 297.669 271.823 297.759 271.622 297.915C271.421 298.07 271.271 298.283 271.194 298.524L270.427 301.142C270.386 301.24 270.372 301.347 270.384 301.453C270.396 301.559 270.435 301.66 270.497 301.747C270.558 301.834 270.641 301.904 270.737 301.95C270.833 301.996 270.94 302.017 271.046 302.012Z" fill="#EB3668"/>
<path d="M270.351 304.066H270.531C270.758 304.053 270.975 303.972 271.154 303.833C271.334 303.695 271.467 303.506 271.537 303.291C271.574 303.203 271.588 303.107 271.577 303.013C271.567 302.918 271.532 302.827 271.477 302.75C271.422 302.672 271.349 302.609 271.263 302.568C271.177 302.526 271.082 302.507 270.987 302.512H270.797C270.57 302.526 270.353 302.607 270.173 302.746C269.994 302.885 269.861 303.075 269.791 303.291C269.755 303.379 269.741 303.476 269.753 303.571C269.764 303.666 269.799 303.756 269.855 303.834C269.911 303.912 269.986 303.974 270.073 304.014C270.16 304.055 270.256 304.073 270.351 304.066Z" fill="#EB3668"/>
<path d="M305.558 210.808C307.422 210.808 309.385 209.294 309.929 207.429C310.472 205.564 309.398 204.05 307.534 204.05C305.67 204.05 303.708 205.568 303.164 207.429C302.62 209.29 303.691 210.808 305.558 210.808ZM307.354 204.658C308.877 204.658 309.758 205.898 309.319 207.419C308.88 208.94 307.268 210.183 305.745 210.183C304.222 210.183 303.341 208.944 303.78 207.419C304.219 205.895 305.827 204.658 307.354 204.658Z" fill="#CDDCF9"/>
<path d="M306.112 209.15C306.251 209.135 306.383 209.081 306.492 208.993L308.389 207.472C308.507 207.398 308.593 207.282 308.63 207.147C308.666 207.012 308.65 206.869 308.585 206.745C308.537 206.697 308.481 206.659 308.418 206.633C308.355 206.607 308.288 206.593 308.22 206.593C308.152 206.593 308.085 206.607 308.022 206.633C307.959 206.659 307.902 206.697 307.855 206.745L306.512 207.818L305.824 206.232C305.725 206.003 305.417 205.95 305.139 206.117C305.01 206.18 304.907 206.286 304.847 206.417C304.787 206.548 304.775 206.695 304.811 206.834L305.715 208.921C305.743 208.984 305.789 209.038 305.848 209.076C305.906 209.114 305.974 209.134 306.043 209.133L306.112 209.15Z" fill="#CDDCF9"/>
<path d="M315.239 210.808C317.106 210.808 319.065 209.294 319.612 207.429C320.16 205.564 319.082 204.05 317.214 204.05C315.347 204.05 313.388 205.568 312.844 207.429C312.3 209.29 313.375 210.808 315.239 210.808ZM317.034 204.668C318.561 204.668 319.439 205.908 319 207.429C318.561 208.95 316.952 210.193 315.426 210.193C313.899 210.193 313.024 208.953 313.46 207.429C313.896 205.905 315.511 204.658 317.034 204.658V204.668Z" fill="#CDDCF9"/>
<path d="M315.793 209.15C315.932 209.136 316.065 209.081 316.173 208.993L318.07 207.472C318.189 207.398 318.275 207.282 318.312 207.147C318.349 207.012 318.332 206.869 318.266 206.745C318.219 206.697 318.162 206.659 318.099 206.633C318.036 206.607 317.969 206.593 317.901 206.593C317.833 206.593 317.766 206.607 317.703 206.633C317.641 206.659 317.584 206.697 317.536 206.745L316.193 207.818L315.505 206.232C315.406 206.003 315.098 205.95 314.82 206.117C314.691 206.181 314.589 206.287 314.529 206.417C314.469 206.548 314.456 206.695 314.492 206.834L315.397 208.921C315.425 208.984 315.471 209.038 315.529 209.076C315.587 209.114 315.655 209.134 315.724 209.133L315.793 209.15Z" fill="#CDDCF9"/>
<path d="M325.267 210.808C327.134 210.808 329.093 209.294 329.64 207.429C330.187 205.564 329.11 204.05 327.242 204.05C325.375 204.05 323.416 205.568 322.872 207.429C322.328 209.29 323.403 210.808 325.267 210.808ZM327.062 204.668C328.589 204.668 329.467 205.908 329.028 207.429C328.589 208.95 326.98 210.193 325.454 210.193C323.927 210.193 323.052 208.953 323.488 207.429C323.924 205.905 325.539 204.658 327.062 204.658V204.668Z" fill="#CDDCF9"/>
<path d="M325.821 209.15C325.96 209.136 326.092 209.082 326.201 208.993L328.101 207.472C328.219 207.397 328.304 207.281 328.341 207.147C328.377 207.012 328.362 206.869 328.297 206.745C328.249 206.697 328.192 206.659 328.129 206.633C328.066 206.606 327.998 206.593 327.93 206.593C327.862 206.593 327.795 206.606 327.732 206.633C327.669 206.659 327.611 206.697 327.563 206.745L326.22 207.818L325.535 206.232C325.434 206.003 325.126 205.95 324.848 206.117C324.719 206.181 324.616 206.287 324.556 206.417C324.497 206.548 324.484 206.695 324.52 206.834L325.424 208.921C325.452 208.984 325.498 209.038 325.556 209.076C325.614 209.114 325.682 209.134 325.752 209.133L325.821 209.15Z" fill="#CDDCF9"/>
<path d="M296.218 210.808C298.083 210.808 300.045 209.294 300.589 207.429C301.133 205.564 300.058 204.05 298.194 204.05C296.33 204.05 294.368 205.568 293.82 207.429C293.273 209.29 294.351 210.808 296.218 210.808ZM298.014 204.668C299.537 204.668 300.415 205.908 299.979 207.429C299.544 208.95 297.932 210.193 296.408 210.193C294.885 210.193 294.004 208.953 294.443 207.429C294.882 205.905 296.487 204.658 298.014 204.658V204.668Z" fill="#EB3668"/>
<path d="M297.044 207.982C297.184 207.974 297.317 207.924 297.428 207.838C297.538 207.753 297.62 207.637 297.663 207.504L298.083 206.068C298.104 206.015 298.113 205.957 298.106 205.9C298.1 205.843 298.08 205.789 298.048 205.741C298.015 205.694 297.971 205.655 297.92 205.629C297.869 205.603 297.813 205.59 297.755 205.591C297.616 205.599 297.483 205.649 297.373 205.734C297.263 205.82 297.182 205.936 297.139 206.068L296.717 207.504C296.695 207.557 296.687 207.615 296.693 207.672C296.699 207.729 296.719 207.784 296.752 207.831C296.784 207.878 296.828 207.917 296.879 207.943C296.93 207.97 296.987 207.983 297.044 207.982Z" fill="#EB3668"/>
<path d="M296.664 209.11H296.766C296.89 209.103 297.01 209.059 297.108 208.982C297.206 208.906 297.279 208.801 297.316 208.682C297.336 208.634 297.344 208.581 297.338 208.53C297.332 208.478 297.313 208.429 297.283 208.386C297.253 208.344 297.213 208.309 297.166 208.287C297.119 208.264 297.067 208.254 297.015 208.257H296.913C296.789 208.264 296.67 208.309 296.571 208.384C296.472 208.46 296.399 208.564 296.36 208.682C296.344 208.73 296.339 208.782 296.347 208.833C296.355 208.883 296.374 208.931 296.404 208.973C296.434 209.014 296.472 209.049 296.518 209.072C296.563 209.096 296.613 209.109 296.664 209.11Z" fill="#EB3668"/>
<path d="M622.095 304.403C622.095 304.403 616.994 305.712 613.751 304.73C610.508 303.749 604.929 305.355 604.031 306.536C603.133 307.717 603.461 308.172 605.066 308.594C606.672 309.016 612.349 311.42 616.083 310.02C619.818 308.62 624.689 308.567 624.689 308.567L622.095 304.403Z" fill="#FF9E9A"/>
<path d="M666.176 260.159C666.176 260.159 660.447 300.824 650.959 304.468C646.278 306.264 625.587 310.337 619.467 310.746C619.467 310.746 617.967 309.532 618.334 304.589C618.334 304.589 640.011 296.644 643.09 292.322C647.677 285.888 640.244 266.044 645.996 260.005C651.749 253.966 661.433 251.366 666.176 260.159Z" fill="#7F22BA"/>
<path d="M662.681 421.391H660.28C658.754 421.391 657.518 420.156 657.518 418.633V354.902C657.518 353.379 658.754 352.144 660.28 352.144H662.681C664.206 352.144 665.443 353.379 665.443 354.902V418.633C665.443 420.156 664.206 421.391 662.681 421.391Z" fill="#FD8857"/>
<path d="M685.927 425.944C683.365 420.645 673.39 416.696 661.475 416.696C649.56 416.696 639.585 420.645 637.023 425.944H685.927Z" fill="#FD8857"/>
<path d="M679.375 407.982H643.588C643.183 407.982 642.854 407.654 642.854 407.249V405.924C642.854 405.519 643.183 405.191 643.588 405.191H679.375C679.781 405.191 680.109 405.519 680.109 405.924V407.249C680.109 407.654 679.781 407.982 679.375 407.982Z" fill="#FD8857"/>
<path d="M664.247 345.834C662.564 348.622 660.694 351.294 658.648 353.829C652.489 361.592 645.787 367.994 644.617 374.045C644.353 375.361 643.991 376.656 643.536 377.919C643.048 379.302 642.445 380.761 641.751 382.266C639.13 387.935 635.228 394.288 631.326 400.059C624.581 410.039 618.239 418.378 618.239 418.378L606.606 417.884C607.071 416.719 612.145 402.937 618.933 386.097C621.688 379.263 624.617 371.991 627.451 364.977C627.824 364.039 628.201 363.106 628.575 362.184L631.12 355.867L642.586 327.462C642.586 327.462 668.057 317.828 670.7 324.07C672.863 329.209 671.087 334.25 664.247 345.834Z" fill="#1D2453"/>
<path d="M617.875 416.258C617.875 416.258 617.279 425.843 615.421 425.98C615.176 425.98 606.003 425.98 606.003 425.98L594.294 425.912C594.294 425.912 594.373 423.095 597.793 422.5C601.213 421.904 606.946 419.503 609.02 414.976C611.199 410.252 617.875 416.258 617.875 416.258Z" fill="#1D2453"/>
<path d="M644.811 388.874C644.811 388.874 652.899 394.066 652.116 395.744C652.011 395.966 647.53 403.965 647.53 403.965L641.764 414.138C641.764 414.138 639.336 412.699 640.486 409.424C641.636 406.15 642.324 399.983 639.386 395.976C636.303 391.776 644.811 388.874 644.811 388.874Z" fill="#1D2453"/>
<path d="M633.417 323.164C633.417 323.164 601.892 342.765 598.324 356.129C594.757 369.492 640.853 398.001 640.853 398.001C640.853 398.001 645.908 393.546 646.799 390.281C646.799 390.281 625.964 365.354 621.443 359.763C618.668 356.331 662.488 347.885 667.841 339.569C673.194 331.254 671.277 324.26 671.277 324.26L633.417 323.164Z" fill="#363F78"/>
<path d="M694.026 366.234H628.935C627.527 366.234 626.386 365.094 626.386 363.689V350.96C626.386 349.554 627.527 348.415 628.935 348.415H694.026C695.433 348.415 696.574 349.554 696.574 350.96V363.689C696.574 365.094 695.433 366.234 694.026 366.234Z" fill="#252535"/>
<path d="M648.647 253.188C646.767 254.347 645.115 255.84 643.775 257.594C651.435 259.557 664.132 252.488 664.132 252.488C664.132 252.488 659.218 249.18 657.374 241.912C657.282 241.545 657.197 241.169 657.125 240.783C656.87 239.472 656.731 238.141 656.709 236.805L653.19 239.952L647.34 245.186C647.511 247.171 647.8 249.144 648.204 251.094C648.332 251.745 648.48 252.445 648.647 253.188Z" fill="#FF9E9A"/>
<path d="M672.24 289.299C671.143 304.02 672.587 326.442 671.343 330.321C670.268 333.668 658.032 331.679 653.144 330.56C651.339 330.148 649.148 329.556 646.887 328.859C640.578 326.896 633.701 324.122 632.964 322.055C632.937 321.976 632.914 321.897 632.896 321.816C632.83 321.531 632.83 321.234 632.896 320.949C633.145 319.896 634.091 318.754 634.206 316.144C634.33 313.229 634.311 309.801 634.422 306.111C634.422 305.695 634.422 305.24 634.478 304.828V304.675C634.478 304.596 634.478 304.518 634.478 304.439C634.586 300.324 634.805 295.999 635.051 291.707C635.208 289.012 635.379 286.346 635.605 283.787C636.155 277.186 636.896 271.317 637.878 267.608C639.48 261.559 643.018 257.614 646.235 254.722L648.565 252.726C651.162 253.296 654.235 252.919 657.013 251.604C660.021 250.178 661.056 249.158 661.58 249.544C668.542 254.892 673.538 271.284 672.24 289.299Z" fill="#9E30CA"/>
<path d="M646.887 328.859C640.578 326.896 633.702 324.122 632.965 322.055C632.938 321.977 632.915 321.897 632.896 321.816C632.896 321.528 632.896 321.237 632.896 320.949C633.145 319.896 634.091 318.754 634.206 316.144C634.331 313.229 634.311 309.801 634.422 306.111C634.422 305.695 634.422 305.24 634.478 304.828V304.675C634.478 304.596 634.478 304.518 634.478 304.439L658.311 293.644C658.311 293.644 659.7 312.827 646.887 328.859Z" fill="#7F22BA"/>
<path d="M647.339 245.186C647.511 247.171 647.8 249.144 648.204 251.094C653.918 249.249 656.509 244.097 657.377 241.912C657.623 241.293 657.731 240.911 657.731 240.911L657.128 240.783L653.197 239.952L647.339 245.186Z" fill="#FF7D78"/>
<path d="M645.027 245.127C645.027 245.127 657.58 246.54 658.34 238.722C659.1 230.904 661.233 225.82 653.253 224.59C645.272 223.36 643.425 226.187 642.534 228.735C641.643 231.283 641.783 244.568 645.027 245.127Z" fill="#FF9E9A"/>
<path d="M658.285 239.262C658.285 239.262 657.492 228.885 646.065 227.812C638.239 227.076 642.602 220.351 643.444 219.278C643.444 219.278 649.439 220.099 655.585 221.113C668.476 223.239 659.552 237.646 658.285 239.262Z" fill="#1D2453"/>
<path d="M597.559 314.614L596.459 314.97L587.118 286.243L588.217 285.887L597.559 314.614Z" fill="#242E6C"/>
<path d="M628.199 314.305L596.465 314.98L596.424 313.083L628.158 312.408L628.199 314.305Z" fill="#242E6C"/>
<path d="M624.719 310.648C624.719 310.648 619.805 312.509 616.463 311.897C613.122 311.286 607.765 313.491 607.002 314.763C606.239 316.036 606.619 316.467 608.257 316.693C609.895 316.919 615.811 318.702 619.366 316.899C622.92 315.097 627.759 314.511 627.759 314.511L624.719 310.648Z" fill="#FF9E9A"/>
<path d="M663.65 261.827C663.65 261.827 662.445 302.875 653.416 307.54C648.964 309.83 628.846 316.17 622.812 317.249C622.812 317.249 621.174 316.209 621.003 311.253C621.003 311.253 641.672 300.968 644.263 296.336C648.106 289.437 638.533 270.532 643.582 263.895C648.63 257.257 657.96 253.613 663.65 261.827Z" fill="#9E30CA"/>
<path d="M320.654 424.675C320.654 424.675 320.195 421.077 319.127 418.957C318.059 416.837 311.265 418.182 311.265 418.182C311.265 418.182 309.905 419.346 309.627 424.773L320.654 424.675Z" fill="#222956"/>
<path d="M343.812 424.626C342.213 423.645 343.124 416.395 343.124 416.395C343.124 416.395 350.561 410.455 351.583 415.005C352.605 419.556 358.646 421.597 362.086 422.153C364.461 422.536 365.198 423.851 365.424 424.626H343.812Z" fill="#222956"/>
<path d="M328.405 371.844C328.666 373.17 328.849 374.51 328.952 375.858C329.643 389.322 340.303 420.112 342.21 420.828C345.158 421.94 349.807 419.578 352.238 418.806C352.73 418.661 353.151 418.339 353.421 417.903C353.69 417.466 353.789 416.946 353.699 416.441C348.421 392.208 346.492 357.31 345.774 336.648C345.417 326.242 343.628 319.055 343.628 319.055C343.628 319.055 317.63 312.126 317.476 320.89C317.339 328.64 326.089 359.063 328.405 371.844Z" fill="#242E6C"/>
<path d="M328.405 371.844L345.768 336.648C345.411 326.242 343.622 319.055 343.622 319.055C343.622 319.055 317.624 312.126 317.47 320.89C317.339 328.64 326.089 359.063 328.405 371.844Z" fill="#1B2251"/>
<path d="M334.19 320.92L320.431 420.393C320.431 420.393 314.394 421.849 309.699 420.684C309.699 420.684 305.676 367.781 306.01 354.99C306.345 342.199 303.124 320.766 306.748 318.401C310.371 316.036 334.19 320.92 334.19 320.92Z" fill="#242E6C"/>
<path d="M305.798 295.381L304.084 319.261C304.055 319.696 304.175 320.128 304.425 320.485C304.676 320.842 305.041 321.103 305.46 321.224C307.377 321.78 309.588 322.166 313.853 323.049C319.124 324.109 324.487 324.647 329.863 324.656C340.392 324.721 344.376 321.096 344.376 321.096C344.831 321.096 344.137 318.905 343.514 308.443C343.301 304.9 343.098 300.409 342.951 294.73C342.816 289.623 342.728 283.555 342.718 276.355C342.718 267.693 329.287 258.363 329.034 258.363C329.034 259.609 327.069 261.912 324.035 262.109C320.432 262.344 316.025 260.558 316.025 258.487C316.025 258.468 309.519 268.877 307.21 279.97C306.915 281.376 306.689 282.862 306.509 284.422V284.494C306.476 284.779 306.446 285.066 306.417 285.354C306.417 285.407 306.417 285.456 306.401 285.508C306.374 285.77 306.348 286.035 306.322 286.303L306.302 286.532C306.279 286.777 306.26 287.019 306.24 287.268C306.242 287.29 306.242 287.312 306.24 287.333L306.201 287.886L306.171 288.282C306.155 288.498 306.142 288.714 306.125 288.936L306.106 289.264C306.093 289.469 306.079 289.678 306.066 289.892C306.066 289.983 306.066 290.075 306.066 290.17C306.05 290.471 306.034 290.778 306.017 291.086C306.016 291.11 306.016 291.134 306.017 291.158C306.017 291.452 305.988 291.75 305.971 292.051V292.27C305.971 292.551 305.945 292.836 305.935 293.12C305.935 293.163 305.935 293.205 305.935 293.245C305.905 293.938 305.877 294.644 305.853 295.361C305.852 295.38 305.852 295.398 305.853 295.417L305.798 295.381Z" fill="#C643DB"/>
<path d="M329.034 258.383C329.034 258.383 341.519 258.278 344.523 262.485C347.527 266.692 354.115 289.309 350.679 296.859C347.242 304.41 340.808 293.742 337.247 289.129C333.686 284.517 329.034 258.383 329.034 258.383Z" fill="#C643DB"/>
<path d="M329.172 256.479V257.768C329.172 257.768 329.522 261.798 324.553 262.387C319.583 262.975 315.819 260.816 315.953 257.705C316.402 255.298 316.893 253.642 316.936 251.65C316.947 250.843 316.888 250.036 316.759 249.239L326.39 249.046L329.224 249.508L329.172 256.479Z" fill="#FFB9B6"/>
<path d="M329.198 249.508L329.162 256.479C328.076 256.986 326.891 257.247 325.692 257.244C321.266 257.244 318.403 254.002 316.909 251.65C316.92 250.843 316.861 250.036 316.733 249.239L326.364 249.046L329.198 249.508Z" fill="#FF9792"/>
<path d="M315.996 247.692C317.113 253.695 324.87 253.499 328.225 253.122C329.169 253.014 329.761 252.897 329.761 252.897C330.826 252.612 331.419 250.934 331.694 248.745C332.241 244.408 331.55 238.042 330.816 236.413C329.712 233.962 327.632 231.309 319.819 233.223C312.006 235.137 314.561 239.988 315.996 247.692Z" fill="#FFB9B6"/>
<path d="M341.801 275.249C341.801 275.249 346.63 285.897 346.489 289.09C344.905 289.067 343.327 289.27 341.801 289.692C338.017 290.814 341.801 275.249 341.801 275.249Z" fill="#7F22BA"/>
<path d="M333.214 230.698C330.628 230.403 328.101 229.719 325.719 228.669C322.427 227.24 318.273 228.817 316.926 229.523C316.974 229.233 317.086 228.957 317.254 228.715C316.908 228.965 316.662 229.329 316.559 229.742C316.497 229.788 316.468 229.821 316.484 229.831C316.108 229.762 315.721 229.787 315.357 229.903C315.357 229.903 315.665 229.86 315.776 230.057C315.789 230.078 315.806 230.097 315.825 230.112C310.689 232.592 310.217 240.695 311.868 242.572C313.857 244.826 316.241 249.91 316.241 249.91C316.241 249.91 317.11 248.709 316.749 246.724C316.389 244.738 318.106 244.738 320.274 243.835C322.443 242.932 320.635 240.404 322.535 238.869C324.435 237.335 331.38 238.238 331.301 237.067C333.886 236.125 333.214 230.959 333.214 230.698Z" fill="#222956"/>
<path d="M314.43 295.198C316.471 303.376 338.512 307.593 343.524 308.45C343.311 304.907 343.108 300.415 342.96 294.736L314.43 295.198Z" fill="#7F22BA"/>
<path d="M319.259 297.854C319.049 297.854 314.361 297.154 313.519 296.735C312.677 296.316 308.838 290.847 311.354 289.463C313.87 288.079 320.625 293.657 320.625 293.657L319.259 297.854Z" fill="#FFB9B6"/>
<path d="M347.786 299.473C347.786 299.473 329.647 300.455 317.473 297.854C317.473 297.854 317.165 294.341 320.991 292.78C320.991 292.78 339.966 288.766 344.523 289.885C349.08 291.004 347.786 299.473 347.786 299.473Z" fill="#C643DB"/>
<path d="M306.129 285.256C309.893 289.79 314.817 293.49 320.242 294.357C321.313 292.531 321.783 290.415 321.585 288.308C321.399 286.321 320.723 284.411 319.619 282.747C319.193 282.069 318.835 281.35 318.551 280.601C315.603 273.051 316.032 258.504 316.032 258.504C316.032 258.504 303.449 259.812 299.531 265.413C297.12 268.844 300.179 278.092 306.129 285.256Z" fill="#C643DB"/>
<path d="M328.225 253.122C329.169 253.014 329.762 252.897 329.762 252.897C330.826 252.612 331.419 250.934 331.694 248.745C329.699 249.236 328.785 250.777 328.418 251.431C328.232 251.726 328.189 252.39 328.225 253.122Z" fill="#FF9792"/>
<path d="M333.293 256.518C333.293 256.518 337.637 249.357 334.276 249.046C330.914 248.735 329.539 251.009 329.034 251.856C328.53 252.704 329.162 256.479 329.162 256.479L333.293 256.518Z" fill="#FFB9B6"/>
<path d="M316.723 288.076C316.854 288.935 317.104 289.771 317.463 290.562C318.123 292.002 319.064 293.295 320.231 294.367C331.517 289.28 333.801 271.814 334.181 262.216C334.335 258.36 334.181 255.775 334.181 255.775C329.09 254.091 327.661 257.015 327.661 257.015C327.661 257.015 321.65 271.288 318.531 280.617C317.348 284.177 316.579 287.023 316.723 288.076Z" fill="#C643DB"/>
<path d="M306.128 285.256C309.892 289.79 314.816 293.49 320.241 294.357C331.527 289.27 333.81 271.805 334.19 262.207C334.19 262.207 328.851 281.547 321.584 288.308C320.274 289.528 318.895 290.34 317.473 290.552C317.473 290.552 308.3 287.965 306.387 285.531C306.318 285.425 306.23 285.332 306.128 285.256Z" fill="#7F22BA"/>
<path d="M120.049 408.302C117.847 416.517 101.588 421.348 83.8031 424.184H17.4347C1.43804 416.363 1.46099 407.036 0.176804 381.278C-2.47675 328.074 25.5494 302.391 38.0473 306.631C38.5682 306.807 39.0989 307 39.6361 307.22C43.2692 308.679 47.3347 311.253 51.2921 317.387C51.2921 317.387 63.7147 338.061 73.939 350.391C77.215 354.362 80.2912 357.47 82.6368 358.742L82.722 358.785C82.8465 358.85 82.9677 358.909 83.089 358.965C88.5042 361.441 96.1405 366.629 103.112 373.179C113.939 383.326 123.151 396.725 120.049 408.302Z" fill="#7F20CC"/>
<path d="M103.112 373.179C93.8047 376.031 45.913 389.839 34.6436 375.2C26.4831 364.598 31.5642 337.44 36.072 319.866C37.9196 312.67 47.1415 311.034 51.1775 317.204L51.2955 317.387C51.2955 317.387 63.718 338.061 73.9424 350.391C76.8908 354.287 79.8162 357.29 82.6402 358.742L82.7253 358.785C82.8465 358.85 82.9711 358.909 83.0923 358.965C88.5042 361.441 96.1405 366.629 103.112 373.179Z" fill="#252535"/>
<path d="M67.4854 306.068C67.4854 306.068 70.804 310.975 72.6975 321.28C74.3552 330.312 75.8097 333.645 78.2044 335.497C80.5992 337.348 93.9292 342.814 93.9292 342.814L92.9464 345.147C92.9464 345.147 73.3953 342.487 71.1971 339.226C68.9989 335.964 60.6287 316.683 61.2807 312.244C61.9326 307.805 67.4854 306.068 67.4854 306.068Z" fill="#FFA9A5"/>
<path d="M115.364 413.765C115.187 415.669 117.841 416.131 120.933 416.284C124.026 416.438 123.079 417.066 127.292 417.828C131.505 418.591 133.189 417.439 133.497 416.87C133.769 416.366 131.809 415.561 129.723 414.685L128.933 414.358C126.584 413.327 125.267 411.22 123.433 409.271C121.7 407.422 120.052 401.508 120.052 401.508L114.326 400.284C114.326 400.284 115.934 405.61 116.491 407.884C116.819 409.222 116.337 410.717 115.905 411.855C115.64 412.465 115.459 413.107 115.364 413.765Z" fill="#FFB9B6"/>
<path d="M120.917 416.284C123.99 416.438 123.063 417.066 127.276 417.828C131.489 418.591 133.173 417.439 133.481 416.87C133.752 416.366 131.793 415.561 129.707 414.685L129.674 414.721C127.592 415.321 125.387 415.347 123.292 414.796C120.504 414.04 117.811 412.378 115.888 411.852C115.629 412.467 115.452 413.114 115.364 413.775C115.187 415.656 117.841 416.131 120.917 416.284Z" fill="#1D2453"/>
<path d="M58.3452 345.978C58.3452 345.978 96.3926 343.119 103.554 347.633C110.715 352.147 122.204 404.727 122.204 404.727C122.204 404.727 121.493 405.293 119.911 405.466C118.437 405.626 115.194 404.76 115.194 404.76C115.194 404.76 98.6857 381.232 97.5227 375.318C96.3598 369.403 96.6416 364.104 93.9946 363.963C91.3476 363.823 58.3353 367.971 53.3427 359.187C48.3501 350.404 52.4778 341.705 52.4778 341.705L58.3452 345.978Z" fill="#1D2453"/>
<path d="M100.802 419.866C100.629 421.77 103.282 422.235 106.372 422.385C109.461 422.536 108.517 423.167 112.73 423.929C116.943 424.692 118.627 423.54 118.935 422.974C119.207 422.467 117.248 421.666 115.161 420.789L114.372 420.462C112.023 419.428 110.706 417.325 108.871 415.375C107.138 413.527 105.49 407.609 105.49 407.609L99.764 406.389C99.764 406.389 101.373 411.714 101.929 413.988C102.257 415.323 101.772 416.818 101.343 417.956C101.08 418.567 100.898 419.209 100.802 419.866Z" fill="#FFB9B6"/>
<path d="M106.358 422.385C109.431 422.539 108.504 423.167 112.717 423.929C116.93 424.692 118.614 423.54 118.922 422.974C119.194 422.467 117.235 421.666 115.148 420.789L115.115 420.825C113.034 421.425 110.829 421.451 108.734 420.9C105.946 420.144 103.25 418.479 101.33 417.956C101.07 418.571 100.893 419.218 100.802 419.879C100.629 421.77 103.282 422.235 106.358 422.385Z" fill="#1D2453"/>
<path d="M50.8925 348.317C50.8925 348.317 84.691 349.903 91.6623 354.706C98.6336 359.508 108.072 412.483 108.072 412.483C108.072 412.483 107.341 413.02 105.752 413.137C104.275 413.239 101.068 412.248 101.068 412.248C101.068 412.248 85.4871 388.099 84.5567 382.132C83.6263 376.165 84.1144 370.889 81.4739 370.647C78.8335 370.405 45.687 373.264 41.0383 364.294C36.3897 355.324 50.8925 348.317 50.8925 348.317Z" fill="#363F78"/>
<path d="M62.4631 303.363C63.1183 302.214 63.9045 300.147 64.4712 296.408C64.3959 296.781 63.4327 301.478 61.4278 304.04C53.5982 308.459 38.1258 323.919 38.2011 327.05C38.2011 327.05 33.7097 318.136 33.6147 318.08C33.6147 318.08 25.0644 305.597 36.5893 299.539C42.4467 296.46 42.7121 292.015 42.735 288.161C42.758 284.307 45.6343 267.843 56.6154 272.93C56.6154 272.93 58.4761 272.246 59.2787 272.42C58.907 272.468 58.5533 272.608 58.2501 272.829C59.5605 272.829 61.4246 273.058 62.925 274.049C66.9118 276.666 69.2051 297.949 62.4631 303.363Z" fill="#1D2453"/>
<path d="M49.474 300.415C51.5682 300.242 53.673 300.242 55.7672 300.415C57.6434 300.616 59.4825 301.076 61.2316 301.783C64.2095 303.026 63.895 308.293 57.628 307.318C51.361 306.343 49.035 301.976 49.474 300.415Z" fill="#FFB9B6"/>
<path d="M60.9662 304.256C61.0023 304.275 61.8573 308.787 57.7656 308.607C55.0792 308.489 49.284 305.24 49.795 302.944C50.0374 301.851 52.0685 299.018 52.478 292.551L52.9662 292.682L61.189 294.887C61.189 294.887 60.8254 297.504 60.655 299.957C60.5109 302.031 60.5076 304.004 60.9662 304.256Z" fill="#FFB9B6"/>
<path d="M61.1958 294.887C61.1958 294.887 60.8322 297.504 60.6619 299.957C56.0067 299.516 53.8248 295.106 52.9731 292.682L61.1958 294.887Z" fill="#FFA9A5"/>
<path d="M52.1671 291.72C52.1671 291.72 49.9787 287.7 49.615 284.366C49.353 281.982 51.1352 273.339 59.8329 275.177C61.5846 275.541 63.2324 276.292 64.6552 277.376C66.4766 278.789 69.0417 281.746 65.4578 289.152L64.475 291.671L52.1671 291.72Z" fill="#1D2453"/>
<path d="M62.5909 297.324C62.5909 297.324 51.5441 296.771 51.9962 289.908C52.4483 283.045 51.3247 278.35 58.3976 278.416C65.4705 278.481 66.6629 281.187 67.0724 283.513C67.4819 285.838 65.477 297.291 62.5909 297.324Z" fill="#FFB9B6"/>
<path d="M63.4331 278.589C63.4331 278.589 59.8754 286.44 55.1579 287.324C50.4405 288.207 48.5142 286.83 48.5142 286.83C50.9356 284.976 52.6367 282.339 53.3266 279.371C53.3266 279.371 61.4085 274.598 63.4331 278.589Z" fill="#1D2453"/>
<path d="M62.6404 279.185C62.6404 279.185 64.7764 281.147 65.2088 282.917C65.6412 284.687 65.6511 288.315 66.7092 288.262C66.7092 288.262 69.3496 282.943 67.0007 279.675C64.5044 276.211 62.6404 279.185 62.6404 279.185Z" fill="#1D2453"/>
<path d="M73.6441 346.537C72.7497 347.604 69.9585 347.931 66.9741 348.421C64.6285 348.811 62.1617 349.295 60.4221 350.322C56.4418 352.658 43.4296 360.548 39.6196 360.188C38.1389 360.048 38.4173 357.244 39.3117 353.492C40.7204 347.604 43.672 339.386 43.672 335.827C43.672 333.884 44.3272 329.284 45.1855 324.014C45.2576 323.589 45.3297 323.161 45.3985 322.729C47.1118 312.493 49.4836 300.422 49.4836 300.422C49.4836 300.422 52.1307 306.186 57.2871 306.186C62.4435 306.186 61.2411 301.793 61.2411 301.793C61.2411 301.793 65.9454 302.342 67.056 303.539C68.1666 304.737 70.9873 309.899 71.5475 311.309C71.5475 311.309 71.662 313.101 67.2165 313.955C67.2165 313.955 68.2977 318.823 68.4254 322.068C68.5204 324.463 66.7874 331.964 66.2895 336.632C66.1126 338.267 66.0896 339.576 66.3583 340.168C66.7022 340.92 67.8161 341.673 69.0806 342.409C71.5802 343.861 74.7055 345.268 73.6441 346.537Z" fill="#C0D3F8"/>
<path d="M69.0579 342.402C71.9113 347.26 61.32 348.719 59.5575 349.75C55.5739 352.082 43.3971 360.545 39.574 360.188C38.0933 360.048 38.3717 357.244 39.2661 353.492C40.6748 347.604 43.6264 339.386 43.6264 335.827C43.6264 333.884 44.2816 329.284 45.1399 324.014L49.7263 319.611C49.7263 319.611 54.6403 332.304 59.3315 334.384C61.5606 335.344 63.8733 336.096 66.2405 336.632C66.0636 338.267 66.0407 339.576 66.3094 340.168C66.6894 340.914 67.8032 341.666 69.0579 342.402Z" fill="#B1C9F6"/>
<path d="M48.0622 304.217C48.0622 304.217 44.1311 301.835 40.344 306.349C36.557 310.864 43.0402 343.132 48.6618 344.79C54.9058 346.632 72.9468 344.496 72.9468 344.496L72.5995 341.679C72.5995 341.679 53.3956 338.002 52.5962 336.979C51.7969 335.955 50.0573 304.737 48.0622 304.217Z" fill="#FFB9B6"/>
<path d="M49.4742 300.415C49.4742 300.415 41.4152 301.142 39.0729 303.788C36.7305 306.435 36.0491 313.602 36.0491 313.602C36.0491 313.602 43.145 319.32 51.6953 317.102L49.4742 300.415Z" fill="#C0D3F8"/>
<path d="M85.4742 347.26H74.8306V346.004H85.4742V347.26Z" fill="#7F22BA"/>
<path d="M83.2135 347.087C83.3183 346.671 92.9989 331.493 92.9989 331.493H114.539L103.728 346.681L83.2135 347.087Z" fill="#7F22BA"/>
<path d="M84.1275 347.26C84.2323 346.845 93.9555 331.493 93.9555 331.493H114.558L104.281 347.26H84.1275Z" fill="#9E30CA"/>
<path d="M102.283 339.435C102.166 339.745 101.963 340.014 101.697 340.212C101.431 340.409 101.113 340.525 100.783 340.547C100.167 340.547 99.8393 340.047 100.052 339.435C100.168 339.125 100.371 338.854 100.637 338.656C100.903 338.458 101.221 338.341 101.553 338.32C102.168 338.313 102.496 338.81 102.283 339.435Z" fill="#EFECEA"/>
<path d="M71.0233 341.512C71.0233 341.512 77.2772 340.305 77.9848 340.606C78.6924 340.907 82.6236 344.434 82.2206 345.14C81.8177 345.847 80.2026 346.347 78.3877 345.742C76.5728 345.137 72.6384 344.836 71.934 343.93C71.2297 343.024 71.0233 341.512 71.0233 341.512Z" fill="#FFB9B6"/>
<path d="M204.35 166.515H401.106L416.186 117.207H219.429L204.35 166.515Z" fill="#B1C9F6"/>
<path d="M226.915 133.877L225.113 139.766C224.32 142.36 225.798 144.486 228.389 144.486H391.415C394.017 144.486 396.791 142.36 397.584 139.766L399.389 133.877C400.182 131.283 398.705 129.16 396.113 129.16H233.103C230.486 129.16 227.711 131.283 226.915 133.877Z" fill="#EFECEA"/>
<path d="M259.56 135.111H262.06L262.296 134.345H258.8L258.597 134.999L259.524 139.308H260.507L259.56 135.111Z" fill="#313B75"/>
<path d="M257.428 136.828C257.86 135.408 257.346 134.26 256.039 134.26C254.731 134.26 253.529 135.395 253.09 136.828C252.651 138.261 253.172 139.396 254.479 139.396C255.786 139.396 256.989 138.251 257.428 136.828ZM253.994 136.828C254.293 135.847 255.043 135.045 255.809 135.045C256.576 135.045 256.828 135.827 256.523 136.828C256.219 137.829 255.482 138.608 254.709 138.608C253.935 138.608 253.69 137.819 253.994 136.828Z" fill="#313B75"/>
<path d="M252.73 135.556C252.943 134.869 252.645 134.286 251.94 134.286C251.582 134.313 251.241 134.449 250.963 134.676C250.685 134.903 250.484 135.21 250.388 135.556C250.178 136.246 250.476 136.828 251.177 136.828C251.536 136.802 251.877 136.666 252.155 136.438C252.434 136.21 252.634 135.902 252.73 135.556ZM248.959 134.345H248.255L250.374 139.311H251.076L248.959 134.345ZM251.02 135.556C251.062 135.373 251.157 135.207 251.293 135.078C251.43 134.95 251.601 134.864 251.786 134.833C252.114 134.833 252.222 135.16 252.098 135.556C252.057 135.739 251.963 135.907 251.826 136.036C251.689 136.166 251.517 136.251 251.331 136.282C250.997 136.288 250.899 135.961 251.02 135.556ZM248.949 138.097C249.159 137.41 248.861 136.828 248.16 136.828C247.801 136.854 247.459 136.99 247.181 137.217C246.902 137.444 246.701 137.752 246.604 138.097C246.394 138.784 246.692 139.367 247.396 139.367C247.755 139.34 248.096 139.204 248.374 138.977C248.652 138.75 248.853 138.443 248.949 138.097ZM247.236 138.097C247.278 137.914 247.374 137.748 247.511 137.619C247.648 137.49 247.82 137.405 248.006 137.374C248.333 137.374 248.438 137.702 248.333 138.097C248.292 138.281 248.197 138.448 248.06 138.577C247.923 138.706 247.75 138.791 247.564 138.82C247.216 138.82 247.115 138.493 247.236 138.097Z" fill="#313B75"/>
<path d="M285.87 129.16L281.178 144.496H391.415C393.584 144.496 395.868 143.021 397.027 141.032C397.263 140.637 397.45 140.215 397.584 139.776L399.389 133.887C400.182 131.293 398.705 129.17 396.113 129.17L285.87 129.16Z" fill="#7F22BA"/>
<path d="M376.582 129.16L381.231 144.496H391.416C393.584 144.496 395.868 143.021 397.027 141.032L393.424 129.16H376.582Z" fill="#242E6C"/>
<path d="M347.737 129.16L352.386 144.496H369.218L364.569 129.16H347.737Z" fill="#242E6C"/>
<path d="M318.888 129.16L323.534 144.496H340.372L335.723 129.16H318.888Z" fill="#242E6C"/>
<path d="M290.04 129.16L294.686 144.496H311.521L306.876 129.16H290.04Z" fill="#242E6C"/>
<path d="M361.509 153.58H390.947L391.566 151.552H362.128L361.509 153.58Z" fill="#313B75"/>
<path d="M367.822 159.249H389.214L389.833 157.221H368.441L367.822 159.249Z" fill="#313B75"/>
<path d="M353.715 159.249H366.502L367.124 157.221H354.338L353.715 159.249Z" fill="#313B75"/>
<path d="M331.973 159.249H351.507L352.126 157.221H332.592L331.973 159.249Z" fill="#313B75"/>
<path d="M350.38 153.58H359.294L359.914 151.552H351L350.38 153.58Z" fill="#313B75"/>
<path d="M314.918 153.58H347.331L347.95 151.552H315.537L314.918 153.58Z" fill="#313B75"/>
<path d="M469.925 240.937H608.342L629.855 170.585H491.442L469.925 240.937Z" fill="#B1C9F6"/>
<path d="M489.463 205.761H610.318L619.464 175.861H498.606L489.463 205.761Z" fill="#EFECEA"/>
<path d="M590.448 181.936H610.92L611.408 180.343H590.933L590.448 181.936Z" fill="#1B2251"/>
<path d="M568.548 181.936H585.577L586.065 180.343H569.036L568.548 181.936Z" fill="#1B2251"/>
<path d="M528.922 181.936H564.112L564.601 180.343H529.41L528.922 181.936Z" fill="#1B2251"/>
<path d="M588.699 187.651H609.171L609.659 186.058H589.187L588.699 187.651Z" fill="#1B2251"/>
<path d="M566.802 187.651H583.828L584.316 186.058H567.291L566.802 187.651Z" fill="#1B2251"/>
<path d="M546.694 187.651H563.719L564.208 186.058H547.179L546.694 187.651Z" fill="#1B2251"/>
<path d="M506.344 188.315H541.535L542.023 186.722H506.832L506.344 188.315Z" fill="#1B2251"/>
<path d="M586.485 194.897H606.956L607.444 193.304H586.973L586.485 194.897Z" fill="#1B2251"/>
<path d="M564.585 194.897H581.613L582.102 193.304H565.073L564.585 194.897Z" fill="#1B2251"/>
<path d="M524.958 194.897H560.149L560.637 193.304H525.446L524.958 194.897Z" fill="#1B2251"/>
<path d="M584.735 200.612H605.207L605.695 199.019H585.223L584.735 200.612Z" fill="#1B2251"/>
<path d="M562.839 200.612H579.864L580.352 199.019H563.327L562.839 200.612Z" fill="#1B2251"/>
<path d="M542.73 200.612H559.756L560.244 199.019H543.218L542.73 200.612Z" fill="#1B2251"/>
<path d="M502.38 201.279H537.57L538.059 199.683H502.868L502.38 201.279Z" fill="#1B2251"/>
<path d="M529.279 230.528C533.971 230.528 538.953 226.717 540.385 222.022C541.817 217.328 539.166 213.517 534.488 213.517C529.81 213.517 524.814 217.328 523.383 222.022C521.951 226.717 524.588 230.528 529.279 230.528ZM534 215.09C537.836 215.09 540.002 218.205 538.832 222.032C537.663 225.859 533.591 228.977 529.754 228.977C525.918 228.977 523.753 225.863 524.922 222.032C526.092 218.201 530.167 215.09 534 215.09Z" fill="#242E6C"/>
<path d="M530.727 226.353C531.08 226.319 531.414 226.181 531.687 225.958L536.513 222.14C537.168 221.626 537.397 220.809 537.03 220.315C536.663 219.821 535.841 219.837 535.186 220.354L531.779 223.049L530.102 219.058C529.859 218.483 529.089 218.355 528.382 218.771C527.674 219.186 527.301 219.997 527.543 220.576L529.745 225.81C529.813 225.966 529.925 226.098 530.067 226.192C530.208 226.286 530.374 226.337 530.544 226.34C530.604 226.351 530.666 226.356 530.727 226.353Z" fill="#242E6C"/>
<path d="M553.623 230.528C558.314 230.528 563.294 226.717 564.729 222.022C566.163 217.328 563.51 213.517 558.832 213.517C554.154 213.517 549.158 217.328 547.726 222.022C546.295 226.717 548.932 230.528 553.623 230.528ZM558.344 215.09C562.18 215.09 564.345 218.205 563.176 222.032C562.006 225.859 557.934 228.977 554.098 228.977C550.262 228.977 548.096 225.863 549.266 222.032C550.435 218.201 554.507 215.09 558.344 215.09Z" fill="#242E6C"/>
<path d="M555.071 226.353C555.423 226.319 555.757 226.181 556.031 225.958L560.857 222.14C561.512 221.626 561.738 220.809 561.374 220.315C561.011 219.821 560.182 219.837 559.53 220.354L556.123 223.049L554.445 219.058C554.203 218.483 553.433 218.355 552.726 218.771C552.018 219.186 551.641 219.997 551.884 220.576L554.088 225.81C554.181 225.986 554.324 226.13 554.499 226.224C554.674 226.318 554.873 226.359 555.071 226.34V226.353Z" fill="#242E6C"/>
<path d="M578.838 230.528C583.529 230.528 588.509 226.717 589.944 222.022C591.379 217.328 588.725 213.517 584.047 213.517C579.369 213.517 574.373 217.328 572.941 222.022C571.51 226.717 574.147 230.528 578.838 230.528ZM583.559 215.09C587.392 215.09 589.561 218.205 588.388 222.032C587.215 225.859 583.146 228.977 579.31 228.977C575.474 228.977 573.312 225.863 574.481 222.032C575.651 218.201 579.723 215.09 583.559 215.09Z" fill="#242E6C"/>
<path d="M580.286 226.353C580.638 226.319 580.972 226.181 581.246 225.958L586.068 222.14C586.724 221.626 586.953 220.809 586.589 220.315C586.226 219.821 585.397 219.837 584.745 220.354L581.338 223.049L579.661 219.058C579.418 218.483 578.648 218.355 577.941 218.771C577.233 219.186 576.856 219.997 577.099 220.576L579.304 225.81C579.397 225.986 579.54 226.13 579.714 226.224C579.889 226.318 580.088 226.359 580.286 226.34V226.353Z" fill="#242E6C"/>
<path d="M505.794 230.528C510.485 230.528 515.468 226.717 516.899 222.022C518.331 217.328 515.68 213.517 511.002 213.517C506.324 213.517 501.328 217.328 499.897 222.022C498.465 226.717 501.102 230.528 505.794 230.528ZM510.514 215.09C514.35 215.09 516.516 218.205 515.346 222.032C514.177 225.859 510.105 228.977 506.269 228.977C502.432 228.977 500.267 225.863 501.436 222.032C502.606 218.201 506.681 215.09 510.514 215.09Z" fill="#EB3668"/>
<path d="M507.965 223.422C508.317 223.401 508.655 223.275 508.935 223.061C509.215 222.847 509.425 222.555 509.538 222.222L510.642 218.623C510.7 218.489 510.723 218.341 510.708 218.195C510.693 218.049 510.641 217.909 510.557 217.789C510.474 217.668 510.36 217.571 510.228 217.507C510.096 217.442 509.95 217.412 509.803 217.42C509.452 217.442 509.114 217.568 508.835 217.782C508.555 217.997 508.346 218.29 508.234 218.623L507.13 222.222C507.072 222.356 507.049 222.503 507.064 222.649C507.078 222.794 507.13 222.934 507.213 223.054C507.297 223.174 507.41 223.271 507.542 223.336C507.673 223.4 507.819 223.43 507.965 223.422Z" fill="#EB3668"/>
<path d="M506.97 226.249H507.232C507.546 226.23 507.846 226.117 508.096 225.926C508.345 225.735 508.531 225.473 508.631 225.176C508.683 225.056 508.703 224.925 508.691 224.795C508.678 224.665 508.632 224.541 508.557 224.434C508.483 224.327 508.382 224.24 508.265 224.183C508.148 224.126 508.018 224.099 507.887 224.106H507.625C507.312 224.125 507.011 224.237 506.762 224.427C506.513 224.618 506.326 224.879 506.226 225.176C506.174 225.296 506.154 225.427 506.167 225.557C506.18 225.686 506.225 225.811 506.3 225.918C506.374 226.026 506.475 226.112 506.592 226.17C506.709 226.228 506.839 226.255 506.97 226.249Z" fill="#EB3668"/>
<path d="M175.026 226.926C175.026 226.926 157.519 245.052 156.681 251.873C155.842 258.693 165.064 269.345 165.064 269.345L175.026 226.926Z" fill="#252535"/>
<path d="M182.938 414.77C182.938 414.77 183.554 424.384 185.418 424.518C185.667 424.538 194.866 424.518 194.866 424.518L206.614 424.427C206.614 424.427 206.529 421.6 203.095 421.011C199.662 420.422 193.923 418.025 191.819 413.487C189.615 408.731 182.938 414.77 182.938 414.77Z" fill="#1D2453"/>
<path d="M156.776 414.829C156.776 414.829 157.392 424.443 159.256 424.577C159.505 424.577 168.704 424.577 168.704 424.577L180.442 424.489C180.442 424.489 180.357 421.662 176.923 421.074C173.49 420.485 167.751 418.087 165.648 413.549C163.459 408.786 156.776 414.829 156.776 414.829Z" fill="#1D2453"/>
<path d="M195.721 311.404C195.721 311.404 192.69 331.031 181.306 365.88C169.922 400.729 168.392 415.817 168.392 415.817L156.101 415.489C156.101 415.489 155.911 377.428 161.156 359.904C166.401 342.379 162.158 296.768 162.158 296.768L195.721 311.404Z" fill="#1D2453"/>
<path d="M201.673 297.762C201.673 297.762 202.171 327.325 197.13 363.636C192.088 399.947 193.854 415.352 193.854 415.352L181.588 415.787C181.588 415.787 174.175 379.476 176.239 361.317C178.302 343.158 166.063 298.992 166.063 298.992L201.673 297.762Z" fill="#363F78"/>
<path d="M177.772 228.63L184.324 232.883L193.769 231.103C193.634 230.341 193.005 227.178 192.432 224.328C192.396 224.162 192.36 224.001 192.327 223.828L191.413 219.307L182.568 215.437L179.276 213.998C179.276 214.047 179.534 216.697 179.57 217.083C180.209 223.959 177.772 228.63 177.772 228.63Z" fill="#FFB9B6"/>
<path d="M191.331 226.438C191.148 226.363 179.947 223.089 178.732 223.494C177.516 223.9 176.802 226.249 176.802 226.249L195.118 230.341C195.118 230.341 193.673 227.42 191.331 226.438Z" fill="#252535"/>
<path d="M161.353 301.488C163.269 310.128 194.846 311.086 202.958 303.222C203.882 302.326 203.918 298.165 203.557 292.558C202.85 281.599 200.609 265.118 200.517 256.695C200.423 252.661 199.964 248.643 199.144 244.692C198.168 239.809 196.818 235.008 195.108 230.331C195.108 230.331 179.672 225.385 176.789 226.239C162.909 230.357 159.436 292.862 161.353 301.488Z" fill="#7F20CC"/>
<path d="M203.57 292.568C202.863 281.609 200.622 265.128 200.53 256.704C200.436 252.67 199.977 248.653 199.157 244.702L189.877 243.086C189.877 243.086 180.884 280.101 203.57 292.568Z" fill="#252535"/>
<path d="M198.512 277.3C198.34 277.74 198.315 278.223 198.442 278.678C198.568 279.133 198.839 279.534 199.213 279.823C200.543 280.833 201.408 282.472 201.106 283.673C200.805 284.873 197.896 286.836 196.887 286.525C195.878 286.215 193.817 284.635 194.037 284C194.256 283.365 192.641 278.439 195.098 276.551C197.555 274.664 198.512 277.3 198.512 277.3Z" fill="#FFB9B6"/>
<path d="M188.032 228.136C188.032 228.136 197.084 229.808 204.314 240.404C211.544 250.999 216.307 258.873 214.987 262.701C213.667 266.528 201.591 279.816 199.504 279.819C197.418 279.823 194.047 278.314 193.85 274.912C193.85 274.912 202.345 262.154 200.661 260.231C199.943 259.416 189.575 251.052 188.107 254.843C185.683 261.111 188.032 228.136 188.032 228.136Z" fill="#7F20CC"/>
<path d="M180.239 217.213C182.185 220.485 189.411 223.308 192.425 224.342C192.389 224.175 192.353 224.014 192.32 223.841L191.406 219.32L182.561 215.45C180.622 215.431 179.436 215.869 180.239 217.213Z" fill="#FFAEAA"/>
<path d="M194.731 218.777C194.731 218.777 180.527 223.236 177.883 214.361C175.239 205.486 171.626 200.082 180.582 196.86C189.539 193.637 192.317 196.5 193.922 199.248C195.527 201.995 198.358 217.387 194.731 218.777Z" fill="#FFB9B6"/>
<path d="M193.362 198.394C193.362 198.394 192.478 208.731 190.335 208.286C188.193 207.841 186.253 207.514 186.574 210.628C186.895 213.743 189.87 217.334 183.275 217.9C176.681 218.466 167.161 201.498 168.966 198.273C174.171 188.989 200.894 187.055 193.362 198.394Z" fill="#1D2453"/>
<g opacity="0.5">
<path opacity="0.5" d="M488.585 121.895V119.376H485.987V121.895H488.585Z" fill="#6A3E91"/>
<path opacity="0.5" d="M488.585 116.814V114.295H485.987V116.814H488.585Z" fill="#6A3E91"/>
<path opacity="0.5" d="M488.585 111.721V109.202H485.987V111.721H488.585Z" fill="#6A3E91"/>
<path opacity="0.5" d="M488.585 106.628V104.112H485.987V106.628H488.585Z" fill="#6A3E91"/>
<path opacity="0.5" d="M488.585 101.537V99.0186H485.987V101.537H488.585Z" fill="#6A3E91"/>
<path opacity="0.5" d="M488.585 96.4441V93.9252H485.987V96.4441H488.585Z" fill="#6A3E91"/>
<path opacity="0.5" d="M488.585 91.3507V88.8318H485.987V91.3507H488.585Z" fill="#6A3E91"/>
<path opacity="0.5" d="M488.585 86.2573V83.7384H485.987V86.2573H488.585Z" fill="#6A3E91"/>
<path opacity="0.5" d="M488.585 81.1639V78.645H485.987V81.1639H488.585Z" fill="#6A3E91"/>
<path opacity="0.5" d="M488.585 76.0705V73.5549H485.987V76.0705H488.585Z" fill="#6A3E91"/>
<path opacity="0.5" d="M488.585 70.9804V68.4615H485.987V70.9804H488.585Z" fill="#6A3E91"/>
<path opacity="0.5" d="M488.585 65.887V63.3681H485.987V65.887H488.585Z" fill="#6A3E91"/>
<path opacity="0.5" d="M488.585 60.7936V58.2747H485.987V60.7936H488.585Z" fill="#6A3E91"/>
<path opacity="0.5" d="M488.585 55.7002V53.1977H485.987V55.7166L488.585 55.7002Z" fill="#6A3E91"/>
<path opacity="0.5" d="M488.585 50.6068V48.0912H485.987V50.6068H488.585Z" fill="#6A3E91"/>
<path opacity="0.5" d="M488.585 45.5167V42.9978H485.987V45.5167H488.585Z" fill="#6A3E91"/>
<path opacity="0.5" d="M488.585 40.4397V37.9208H485.987V40.4397H488.585Z" fill="#6A3E91"/>
<path opacity="0.5" d="M488.585 35.3299V32.811H485.987V35.3299H488.585Z" fill="#6A3E91"/>
</g>
<g opacity="0.5">
<path opacity="0.5" d="M496.526 91.3507V88.8318H493.928V91.3507H496.526Z" fill="#6A3E91"/>
<path opacity="0.5" d="M496.526 86.2573V83.7384H493.928V86.2573H496.526Z" fill="#6A3E91"/>
<path opacity="0.5" d="M496.526 81.1639V78.645H493.928V81.1639H496.526Z" fill="#6A3E91"/>
<path opacity="0.5" d="M496.526 76.0705V73.5549H493.928V76.0705H496.526Z" fill="#6A3E91"/>
<path opacity="0.5" d="M496.526 70.9804V68.4615H493.928V70.9804H496.526Z" fill="#6A3E91"/>
<path opacity="0.5" d="M496.526 65.887V63.3681H493.928V65.887H496.526Z" fill="#6A3E91"/>
<path opacity="0.5" d="M496.526 60.7936V58.2747H493.928V60.7936H496.526Z" fill="#6A3E91"/>
<path opacity="0.5" d="M496.526 55.7002V53.1977H493.928V55.7166L496.526 55.7002Z" fill="#6A3E91"/>
<path opacity="0.5" d="M496.526 50.6068V48.0912H493.928V50.6068H496.526Z" fill="#6A3E91"/>
<path opacity="0.5" d="M496.526 45.5167V42.9978H493.928V45.5167H496.526Z" fill="#6A3E91"/>
<path opacity="0.5" d="M496.526 40.4397V37.9208H493.928V40.4397H496.526Z" fill="#6A3E91"/>
<path opacity="0.5" d="M496.526 35.3299V32.811H493.928V35.3299H496.526Z" fill="#6A3E91"/>
</g>
<g opacity="0.5">
<path opacity="0.5" d="M504.618 121.895V119.376H502.02V121.895H504.618Z" fill="#6A3E91"/>
<path opacity="0.5" d="M504.618 116.814V114.295H502.02V116.814H504.618Z" fill="#6A3E91"/>
<path opacity="0.5" d="M504.618 111.721V109.202H502.02V111.721H504.618Z" fill="#6A3E91"/>
<path opacity="0.5" d="M504.618 106.628V104.112H502.02V106.628H504.618Z" fill="#6A3E91"/>
<path opacity="0.5" d="M504.618 101.537V99.0186H502.02V101.537H504.618Z" fill="#6A3E91"/>
<path opacity="0.5" d="M504.618 96.4441V93.9252H502.02V96.4441H504.618Z" fill="#6A3E91"/>
<path opacity="0.5" d="M504.618 91.3507V88.8318H502.02V91.3507H504.618Z" fill="#6A3E91"/>
<path opacity="0.5" d="M504.618 86.2573V83.7384H502.02V86.2573H504.618Z" fill="#6A3E91"/>
<path opacity="0.5" d="M504.618 81.1639V78.645H502.02V81.1639H504.618Z" fill="#6A3E91"/>
<path opacity="0.5" d="M504.618 76.0705V73.5549H502.02V76.0705H504.618Z" fill="#6A3E91"/>
<path opacity="0.5" d="M504.618 70.9804V68.4615H502.02V70.9804H504.618Z" fill="#6A3E91"/>
<path opacity="0.5" d="M504.618 65.887V63.3681H502.02V65.887H504.618Z" fill="#6A3E91"/>
<path opacity="0.5" d="M504.618 60.7936V58.2747H502.02V60.7936H504.618Z" fill="#6A3E91"/>
<path opacity="0.5" d="M504.618 55.7002V53.1977H502.02V55.7166L504.618 55.7002Z" fill="#6A3E91"/>
<path opacity="0.5" d="M504.618 50.6068V48.0912H502.02V50.6068H504.618Z" fill="#6A3E91"/>
<path opacity="0.5" d="M504.618 45.5167V42.9978H502.02V45.5167H504.618Z" fill="#6A3E91"/>
<path opacity="0.5" d="M504.618 40.4397V37.9208H502.02V40.4397H504.618Z" fill="#6A3E91"/>
<path opacity="0.5" d="M504.618 35.3299V32.811H502.02V35.3299H504.618Z" fill="#6A3E91"/>
</g>
<g opacity="0.5">
<path opacity="0.5" d="M511.428 132.091V129.576H508.834V132.091H511.428Z" fill="#6A3E91"/>
<path opacity="0.5" d="M511.428 127.001V124.482H508.834V127.001H511.428Z" fill="#6A3E91"/>
<path opacity="0.5" d="M511.428 121.895V119.376H508.834V121.895H511.428Z" fill="#6A3E91"/>
<path opacity="0.5" d="M511.428 116.814V114.295H508.834V116.814H511.428Z" fill="#6A3E91"/>
<path opacity="0.5" d="M511.428 111.721V109.202H508.834V111.721H511.428Z" fill="#6A3E91"/>
<path opacity="0.5" d="M511.428 106.628V104.112H508.834V106.628H511.428Z" fill="#6A3E91"/>
<path opacity="0.5" d="M511.428 101.537V99.0186H508.834V101.537H511.428Z" fill="#6A3E91"/>
<path opacity="0.5" d="M511.428 96.4441V93.9252H508.834V96.4441H511.428Z" fill="#6A3E91"/>
<path opacity="0.5" d="M511.428 91.3507V88.8318H508.834V91.3507H511.428Z" fill="#6A3E91"/>
<path opacity="0.5" d="M511.428 86.2573V83.7384H508.834V86.2573H511.428Z" fill="#6A3E91"/>
<path opacity="0.5" d="M511.428 81.1639V78.645H508.834V81.1639H511.428Z" fill="#6A3E91"/>
<path opacity="0.5" d="M511.428 76.0705V73.5549H508.834V76.0705H511.428Z" fill="#6A3E91"/>
<path opacity="0.5" d="M511.428 70.9804V68.4615H508.834V70.9804H511.428Z" fill="#6A3E91"/>
<path opacity="0.5" d="M511.428 65.887V63.3681H508.834V65.887H511.428Z" fill="#6A3E91"/>
<path opacity="0.5" d="M511.428 60.7936V58.2747H508.834V60.7936H511.428Z" fill="#6A3E91"/>
<path opacity="0.5" d="M511.428 55.7002V53.1977H508.834V55.7166L511.428 55.7002Z" fill="#6A3E91"/>
<path opacity="0.5" d="M511.428 50.6068V48.0912H508.834V50.6068H511.428Z" fill="#6A3E91"/>
<path opacity="0.5" d="M511.428 45.5167V42.9978H508.834V45.5167H511.428Z" fill="#6A3E91"/>
<path opacity="0.5" d="M511.428 40.4397V37.9208H508.834V40.4397H511.428Z" fill="#6A3E91"/>
<path opacity="0.5" d="M511.428 35.3299V32.811H508.834V35.3299H511.428Z" fill="#6A3E91"/>
</g>
<g opacity="0.5">
<path opacity="0.5" d="M520.418 86.2573V83.7384H517.823V86.2573H520.418Z" fill="#6A3E91"/>
<path opacity="0.5" d="M520.418 81.1639V78.645H517.823V81.1639H520.418Z" fill="#6A3E91"/>
<path opacity="0.5" d="M520.418 76.0705V73.5549H517.823V76.0705H520.418Z" fill="#6A3E91"/>
<path opacity="0.5" d="M520.418 70.9804V68.4615H517.823V70.9804H520.418Z" fill="#6A3E91"/>
<path opacity="0.5" d="M520.418 65.887V63.3681H517.823V65.887H520.418Z" fill="#6A3E91"/>
<path opacity="0.5" d="M520.418 60.7936V58.2747H517.823V60.7936H520.418Z" fill="#6A3E91"/>
<path opacity="0.5" d="M520.418 55.7002V53.1977H517.823V55.7166L520.418 55.7002Z" fill="#6A3E91"/>
<path opacity="0.5" d="M520.418 50.6068V48.0912H517.823V50.6068H520.418Z" fill="#6A3E91"/>
<path opacity="0.5" d="M520.418 45.5167V42.9978H517.823V45.5167H520.418Z" fill="#6A3E91"/>
<path opacity="0.5" d="M520.418 40.4397V37.9208H517.823V40.4397H520.418Z" fill="#6A3E91"/>
<path opacity="0.5" d="M520.418 35.3299V32.811H517.823V35.3299H520.418Z" fill="#6A3E91"/>
</g>
<g opacity="0.5">
<path opacity="0.5" d="M125.921 73.5046L125.921 77.5907L129.849 77.5907L129.849 73.5046L125.921 73.5046Z" fill="#EFECEA"/>
<path opacity="0.5" d="M125.921 81.7618L125.921 85.8479L129.849 85.8479L129.849 81.7618L125.921 81.7618Z" fill="#EFECEA"/>
<path opacity="0.5" d="M125.921 90.0193L125.921 94.1053L129.849 94.1053L129.849 90.0193L125.921 90.0193Z" fill="#EFECEA"/>
<path opacity="0.5" d="M125.921 98.2797L125.921 102.362L129.849 102.362L129.849 98.2797L125.921 98.2797Z" fill="#EFECEA"/>
<path opacity="0.5" d="M125.921 106.537L125.921 110.62L129.849 110.62L129.849 106.537L125.921 106.537Z" fill="#EFECEA"/>
<path opacity="0.5" d="M125.921 114.794L125.921 118.867L129.849 118.867L129.849 114.784L125.921 114.794Z" fill="#EFECEA"/>
<path opacity="0.5" d="M125.921 123.051L125.921 127.134L129.849 127.134L129.849 123.051L125.921 123.051Z" fill="#EFECEA"/>
<path opacity="0.5" d="M125.921 131.309L125.921 135.391L129.849 135.391L129.849 131.309L125.921 131.309Z" fill="#EFECEA"/>
<path opacity="0.5" d="M125.921 139.566L125.921 143.648L129.849 143.648L129.849 139.566L125.921 139.566Z" fill="#EFECEA"/>
<path opacity="0.5" d="M125.921 147.823L125.921 151.906L129.849 151.906L129.849 147.823L125.921 147.823Z" fill="#EFECEA"/>
<path opacity="0.5" d="M125.921 156.08L125.921 160.163L129.849 160.163L129.849 156.08L125.921 156.08Z" fill="#EFECEA"/>
<path opacity="0.5" d="M125.921 164.337L125.921 168.42L129.849 168.42L129.849 164.337L125.921 164.337Z" fill="#EFECEA"/>
<path opacity="0.5" d="M125.921 172.595L125.921 176.677L129.849 176.677L129.849 172.595L125.921 172.595Z" fill="#EFECEA"/>
<path opacity="0.5" d="M125.921 180.852L125.921 184.935L129.849 184.935L129.849 180.852L125.921 180.852Z" fill="#EFECEA"/>
<path opacity="0.5" d="M125.921 189.109L125.921 193.189L129.849 193.189L129.849 189.106L125.921 189.109Z" fill="#EFECEA"/>
<path opacity="0.5" d="M125.921 197.366L125.921 201.449L129.849 201.449L129.849 197.366L125.921 197.366Z" fill="#EFECEA"/>
<path opacity="0.5" d="M125.921 205.63L125.921 209.716L129.849 209.716L129.849 205.63L125.921 205.63Z" fill="#EFECEA"/>
<path opacity="0.5" d="M125.921 213.881L125.921 217.967L129.849 217.967L129.849 213.881L125.921 213.881Z" fill="#EFECEA"/>
</g>
<g opacity="0.5">
<path opacity="0.5" d="M113.862 123.051L113.862 127.134L117.79 127.134L117.79 123.051L113.862 123.051Z" fill="#EFECEA"/>
<path opacity="0.5" d="M113.862 131.309L113.862 135.391L117.79 135.391L117.79 131.309L113.862 131.309Z" fill="#EFECEA"/>
<path opacity="0.5" d="M113.862 139.566L113.862 143.648L117.79 143.648L117.79 139.566L113.862 139.566Z" fill="#EFECEA"/>
<path opacity="0.5" d="M113.862 147.823L113.862 151.906L117.79 151.906L117.79 147.823L113.862 147.823Z" fill="#EFECEA"/>
<path opacity="0.5" d="M113.862 156.08L113.862 160.163L117.79 160.163L117.79 156.08L113.862 156.08Z" fill="#EFECEA"/>
<path opacity="0.5" d="M113.862 164.337L113.862 168.42L117.79 168.42L117.79 164.337L113.862 164.337Z" fill="#EFECEA"/>
<path opacity="0.5" d="M113.862 172.595L113.862 176.677L117.79 176.677L117.79 172.595L113.862 172.595Z" fill="#EFECEA"/>
<path opacity="0.5" d="M113.862 180.852L113.862 184.935L117.79 184.935L117.79 180.852L113.862 180.852Z" fill="#EFECEA"/>
<path opacity="0.5" d="M113.862 189.109L113.862 193.189L117.79 193.189L117.79 189.106L113.862 189.109Z" fill="#EFECEA"/>
<path opacity="0.5" d="M113.862 197.366L113.862 201.449L117.79 201.449L117.79 197.366L113.862 197.366Z" fill="#EFECEA"/>
<path opacity="0.5" d="M113.862 205.63L113.862 209.716L117.79 209.716L117.79 205.63L113.862 205.63Z" fill="#EFECEA"/>
<path opacity="0.5" d="M113.862 213.881L113.862 217.967L117.79 217.967L117.79 213.881L113.862 213.881Z" fill="#EFECEA"/>
</g>
<g opacity="0.5">
<path opacity="0.5" d="M101.578 73.5046L101.578 77.5907L105.505 77.5907L105.505 73.5046L101.578 73.5046Z" fill="#EFECEA"/>
<path opacity="0.5" d="M101.578 81.7618L101.578 85.8479L105.505 85.8479L105.505 81.7618L101.578 81.7618Z" fill="#EFECEA"/>
<path opacity="0.5" d="M101.578 90.0193L101.578 94.1053L105.505 94.1053L105.505 90.0193L101.578 90.0193Z" fill="#EFECEA"/>
<path opacity="0.5" d="M101.578 98.2797L101.578 102.362L105.505 102.362L105.505 98.2797L101.578 98.2797Z" fill="#EFECEA"/>
<path opacity="0.5" d="M101.578 106.537L101.578 110.62L105.505 110.62L105.505 106.537L101.578 106.537Z" fill="#EFECEA"/>
<path opacity="0.5" d="M101.578 114.794L101.578 118.867L105.505 118.867L105.505 114.784L101.578 114.794Z" fill="#EFECEA"/>
<path opacity="0.5" d="M101.578 123.051L101.578 127.134L105.505 127.134L105.505 123.051L101.578 123.051Z" fill="#EFECEA"/>
<path opacity="0.5" d="M101.578 131.309L101.578 135.391L105.505 135.391L105.505 131.309L101.578 131.309Z" fill="#EFECEA"/>
<path opacity="0.5" d="M101.578 139.566L101.578 143.648L105.505 143.648L105.505 139.566L101.578 139.566Z" fill="#EFECEA"/>
<path opacity="0.5" d="M101.578 147.823L101.578 151.906L105.505 151.906L105.505 147.823L101.578 147.823Z" fill="#EFECEA"/>
<path opacity="0.5" d="M101.578 156.08L101.578 160.163L105.505 160.163L105.505 156.08L101.578 156.08Z" fill="#EFECEA"/>
<path opacity="0.5" d="M101.578 164.337L101.578 168.42L105.505 168.42L105.505 164.337L101.578 164.337Z" fill="#EFECEA"/>
<path opacity="0.5" d="M101.578 172.595L101.578 176.677L105.505 176.677L105.505 172.595L101.578 172.595Z" fill="#EFECEA"/>
<path opacity="0.5" d="M101.578 180.852L101.578 184.935L105.505 184.935L105.505 180.852L101.578 180.852Z" fill="#EFECEA"/>
<path opacity="0.5" d="M101.578 189.109L101.578 193.189L105.505 193.189L105.505 189.106L101.578 189.109Z" fill="#EFECEA"/>
<path opacity="0.5" d="M101.578 197.366L101.578 201.449L105.505 201.449L105.505 197.366L101.578 197.366Z" fill="#EFECEA"/>
<path opacity="0.5" d="M101.578 205.63L101.578 209.716L105.505 209.716L105.505 205.63L101.578 205.63Z" fill="#EFECEA"/>
<path opacity="0.5" d="M101.578 213.881L101.578 217.967L105.505 217.967L105.505 213.881L101.578 213.881Z" fill="#EFECEA"/>
</g>
<g opacity="0.5">
<path opacity="0.5" d="M91.2344 56.9868L91.2344 61.0697L95.1621 61.0697L95.1621 56.9868L91.2344 56.9868Z" fill="#EFECEA"/>
<path opacity="0.5" d="M91.2344 65.2474L91.2344 69.3301L95.1621 69.3301L95.1621 65.2474L91.2344 65.2474Z" fill="#EFECEA"/>
<path opacity="0.5" d="M91.2344 73.5046L91.2344 77.5907L95.1621 77.5907L95.1621 73.5046L91.2344 73.5046Z" fill="#EFECEA"/>
<path opacity="0.5" d="M91.2344 81.7618L91.2344 85.8479L95.1621 85.8479L95.1621 81.7618L91.2344 81.7618Z" fill="#EFECEA"/>
<path opacity="0.5" d="M91.2344 90.0193L91.2344 94.1053L95.1621 94.1053L95.1621 90.0193L91.2344 90.0193Z" fill="#EFECEA"/>
<path opacity="0.5" d="M91.2344 98.2797L91.2344 102.362L95.1621 102.362L95.1621 98.2797L91.2344 98.2797Z" fill="#EFECEA"/>
<path opacity="0.5" d="M91.2344 106.537L91.2344 110.62L95.1621 110.62L95.1621 106.537L91.2344 106.537Z" fill="#EFECEA"/>
<path opacity="0.5" d="M91.2344 114.794L91.2344 118.867L95.1621 118.867L95.1621 114.784L91.2344 114.794Z" fill="#EFECEA"/>
<path opacity="0.5" d="M91.2344 123.051L91.2344 127.134L95.1621 127.134L95.1621 123.051L91.2344 123.051Z" fill="#EFECEA"/>
<path opacity="0.5" d="M91.2344 131.309L91.2344 135.391L95.1621 135.391L95.1621 131.309L91.2344 131.309Z" fill="#EFECEA"/>
<path opacity="0.5" d="M91.2344 139.566L91.2344 143.648L95.1621 143.648L95.1621 139.566L91.2344 139.566Z" fill="#EFECEA"/>
<path opacity="0.5" d="M91.2344 147.823L91.2344 151.906L95.1621 151.906L95.1621 147.823L91.2344 147.823Z" fill="#EFECEA"/>
<path opacity="0.5" d="M91.2344 156.08L91.2344 160.163L95.1621 160.163L95.1621 156.08L91.2344 156.08Z" fill="#EFECEA"/>
<path opacity="0.5" d="M91.2344 164.337L91.2344 168.42L95.1621 168.42L95.1621 164.337L91.2344 164.337Z" fill="#EFECEA"/>
<path opacity="0.5" d="M91.2344 172.595L91.2344 176.677L95.1621 176.677L95.1621 172.595L91.2344 172.595Z" fill="#EFECEA"/>
<path opacity="0.5" d="M91.2344 180.852L91.2344 184.935L95.1621 184.935L95.1621 180.852L91.2344 180.852Z" fill="#EFECEA"/>
<path opacity="0.5" d="M91.2344 189.109L91.2344 193.189L95.1621 193.189L95.1621 189.106L91.2344 189.109Z" fill="#EFECEA"/>
<path opacity="0.5" d="M91.2344 197.366L91.2344 201.449L95.1621 201.449L95.1621 197.366L91.2344 197.366Z" fill="#EFECEA"/>
<path opacity="0.5" d="M91.2344 205.63L91.2344 209.716L95.1621 209.716L95.1621 205.63L91.2344 205.63Z" fill="#EFECEA"/>
<path opacity="0.5" d="M91.2344 213.881L91.2344 217.967L95.1621 217.967L95.1621 213.881L91.2344 213.881Z" fill="#EFECEA"/>
</g>
<g opacity="0.5">
<path opacity="0.5" d="M77.5851 131.309L77.5851 135.391L81.5293 135.391L81.5293 131.309L77.5851 131.309Z" fill="#EFECEA"/>
<path opacity="0.5" d="M77.5851 139.566L77.5851 143.648L81.5293 143.648L81.5293 139.566L77.5851 139.566Z" fill="#EFECEA"/>
<path opacity="0.5" d="M77.5851 147.823L77.5851 151.906L81.5293 151.906L81.5293 147.823L77.5851 147.823Z" fill="#EFECEA"/>
<path opacity="0.5" d="M77.5851 156.08L77.5851 160.163L81.5293 160.163L81.5293 156.08L77.5851 156.08Z" fill="#EFECEA"/>
<path opacity="0.5" d="M77.5851 164.337L77.5851 168.42L81.5293 168.42L81.5293 164.337L77.5851 164.337Z" fill="#EFECEA"/>
<path opacity="0.5" d="M77.5851 172.595L77.5851 176.677L81.5293 176.677L81.5293 172.595L77.5851 172.595Z" fill="#EFECEA"/>
<path opacity="0.5" d="M77.5851 180.852L77.5851 184.935L81.5293 184.935L81.5293 180.852L77.5851 180.852Z" fill="#EFECEA"/>
<path opacity="0.5" d="M77.5851 189.109L77.5851 193.189L81.5293 193.189L81.5293 189.106L77.5851 189.109Z" fill="#EFECEA"/>
<path opacity="0.5" d="M77.5851 197.366L77.5851 201.449L81.5293 201.449L81.5293 197.366L77.5851 197.366Z" fill="#EFECEA"/>
<path opacity="0.5" d="M77.5851 205.63L77.5851 209.716L81.5293 209.716L81.5293 205.63L77.5851 205.63Z" fill="#EFECEA"/>
<path opacity="0.5" d="M77.5851 213.881L77.5851 217.967L81.5293 217.967L81.5293 213.881L77.5851 213.881Z" fill="#EFECEA"/>
</g>
<g opacity="0.5">
<path opacity="0.5" d="M128.386 216.229V218.748H130.974V216.229H128.386Z" fill="#6A3E91"/>
<path opacity="0.5" d="M128.386 221.322V223.841H130.974V221.322H128.386Z" fill="#6A3E91"/>
<path opacity="0.5" d="M128.386 226.416V228.934H130.974V226.416H128.386Z" fill="#6A3E91"/>
<path opacity="0.5" d="M128.386 231.509V234.025H130.974V231.509H128.386Z" fill="#6A3E91"/>
<path opacity="0.5" d="M128.386 236.599V239.118H130.974V236.599H128.386Z" fill="#6A3E91"/>
<path opacity="0.5" d="M128.386 241.692V244.211H130.974V241.692H128.386Z" fill="#6A3E91"/>
<path opacity="0.5" d="M128.386 246.786V249.305H130.974V246.786H128.386Z" fill="#6A3E91"/>
<path opacity="0.5" d="M128.386 251.879V254.398H130.974V251.879H128.386Z" fill="#6A3E91"/>
<path opacity="0.5" d="M128.386 256.973V259.488H130.974V256.973H128.386Z" fill="#6A3E91"/>
<path opacity="0.5" d="M128.386 262.063V264.582H130.974V262.063H128.386Z" fill="#6A3E91"/>
<path opacity="0.5" d="M128.386 267.156V269.675H130.974V267.156H128.386Z" fill="#6A3E91"/>
<path opacity="0.5" d="M128.386 272.25V274.768H130.974V272.25H128.386Z" fill="#6A3E91"/>
<path opacity="0.5" d="M128.386 277.343V279.862H130.974V277.343H128.386Z" fill="#6A3E91"/>
<path opacity="0.5" d="M128.386 282.436V284.955H130.974V282.436H128.386Z" fill="#6A3E91"/>
<path opacity="0.5" d="M128.386 287.53V290.039H130.974V287.523L128.386 287.53Z" fill="#6A3E91"/>
<path opacity="0.5" d="M128.386 292.62V295.139H130.974V292.62H128.386Z" fill="#6A3E91"/>
<path opacity="0.5" d="M128.386 297.713V300.232H130.974V297.713H128.386Z" fill="#6A3E91"/>
<path opacity="0.5" d="M128.386 302.797V305.316H130.974V302.797H128.386Z" fill="#6A3E91"/>
</g>
<g opacity="0.5">
<path opacity="0.5" d="M120.445 246.786V249.305H123.043V246.786H120.445Z" fill="#6A3E91"/>
<path opacity="0.5" d="M120.445 251.879V254.398H123.043V251.879H120.445Z" fill="#6A3E91"/>
<path opacity="0.5" d="M120.445 256.973V259.488H123.043V256.973H120.445Z" fill="#6A3E91"/>
<path opacity="0.5" d="M120.445 262.063V264.582H123.043V262.063H120.445Z" fill="#6A3E91"/>
<path opacity="0.5" d="M120.445 267.156V269.675H123.043V267.156H120.445Z" fill="#6A3E91"/>
<path opacity="0.5" d="M120.445 272.25V274.768H123.043V272.25H120.445Z" fill="#6A3E91"/>
<path opacity="0.5" d="M120.445 277.343V279.862H123.043V277.343H120.445Z" fill="#6A3E91"/>
<path opacity="0.5" d="M120.445 282.436V284.955H123.043V282.436H120.445Z" fill="#6A3E91"/>
<path opacity="0.5" d="M120.445 287.53V290.039H123.043V287.523L120.445 287.53Z" fill="#6A3E91"/>
<path opacity="0.5" d="M120.445 292.62V295.139H123.043V292.62H120.445Z" fill="#6A3E91"/>
<path opacity="0.5" d="M120.445 297.713V300.232H123.043V297.713H120.445Z" fill="#6A3E91"/>
<path opacity="0.5" d="M120.445 302.797V305.316H123.043V302.797H120.445Z" fill="#6A3E91"/>
</g>
<g opacity="0.5">
<path opacity="0.5" d="M112.353 216.229V218.748H114.951V216.229H112.353Z" fill="#6A3E91"/>
<path opacity="0.5" d="M112.353 221.322V223.841H114.951V221.322H112.353Z" fill="#6A3E91"/>
<path opacity="0.5" d="M112.353 226.416V228.934H114.951V226.416H112.353Z" fill="#6A3E91"/>
<path opacity="0.5" d="M112.353 231.509V234.025H114.951V231.509H112.353Z" fill="#6A3E91"/>
<path opacity="0.5" d="M112.353 236.599V239.118H114.951V236.599H112.353Z" fill="#6A3E91"/>
<path opacity="0.5" d="M112.353 241.692V244.211H114.951V241.692H112.353Z" fill="#6A3E91"/>
<path opacity="0.5" d="M112.353 246.786V249.305H114.951V246.786H112.353Z" fill="#6A3E91"/>
<path opacity="0.5" d="M112.353 251.879V254.398H114.951V251.879H112.353Z" fill="#6A3E91"/>
<path opacity="0.5" d="M112.353 256.973V259.488H114.951V256.973H112.353Z" fill="#6A3E91"/>
<path opacity="0.5" d="M112.353 262.063V264.582H114.951V262.063H112.353Z" fill="#6A3E91"/>
<path opacity="0.5" d="M112.353 267.156V269.675H114.951V267.156H112.353Z" fill="#6A3E91"/>
<path opacity="0.5" d="M112.353 272.25V274.768H114.951V272.25H112.353Z" fill="#6A3E91"/>
<path opacity="0.5" d="M112.353 277.343V279.862H114.951V277.343H112.353Z" fill="#6A3E91"/>
<path opacity="0.5" d="M112.353 282.436V284.955H114.951V282.436H112.353Z" fill="#6A3E91"/>
<path opacity="0.5" d="M112.353 287.53V290.039H114.951V287.523L112.353 287.53Z" fill="#6A3E91"/>
<path opacity="0.5" d="M112.353 292.62V295.139H114.951V292.62H112.353Z" fill="#6A3E91"/>
<path opacity="0.5" d="M112.353 297.713V300.232H114.951V297.713H112.353Z" fill="#6A3E91"/>
<path opacity="0.5" d="M112.353 302.797V305.316H114.951V302.797H112.353Z" fill="#6A3E91"/>
</g>
<g opacity="0.5">
<path opacity="0.5" d="M105.543 206.042V208.561H108.137V206.042H105.543Z" fill="#6A3E91"/>
<path opacity="0.5" d="M105.543 211.135V213.654H108.137V211.135H105.543Z" fill="#6A3E91"/>
<path opacity="0.5" d="M105.543 216.229V218.748H108.137V216.229H105.543Z" fill="#6A3E91"/>
<path opacity="0.5" d="M105.543 221.322V223.841H108.137V221.322H105.543Z" fill="#6A3E91"/>
<path opacity="0.5" d="M105.543 226.416V228.934H108.137V226.416H105.543Z" fill="#6A3E91"/>
<path opacity="0.5" d="M105.543 231.509V234.025H108.137V231.509H105.543Z" fill="#6A3E91"/>
<path opacity="0.5" d="M105.543 236.599V239.118H108.137V236.599H105.543Z" fill="#6A3E91"/>
<path opacity="0.5" d="M105.543 241.692V244.211H108.137V241.692H105.543Z" fill="#6A3E91"/>
<path opacity="0.5" d="M105.543 246.786V249.305H108.137V246.786H105.543Z" fill="#6A3E91"/>
<path opacity="0.5" d="M105.543 251.879V254.398H108.137V251.879H105.543Z" fill="#6A3E91"/>
<path opacity="0.5" d="M105.543 256.973V259.488H108.137V256.973H105.543Z" fill="#6A3E91"/>
<path opacity="0.5" d="M105.543 262.063V264.582H108.137V262.063H105.543Z" fill="#6A3E91"/>
<path opacity="0.5" d="M105.543 267.156V269.675H108.137V267.156H105.543Z" fill="#6A3E91"/>
<path opacity="0.5" d="M105.543 272.25V274.768H108.137V272.25H105.543Z" fill="#6A3E91"/>
<path opacity="0.5" d="M105.543 277.343V279.862H108.137V277.343H105.543Z" fill="#6A3E91"/>
<path opacity="0.5" d="M105.543 282.436V284.955H108.137V282.436H105.543Z" fill="#6A3E91"/>
<path opacity="0.5" d="M105.543 287.53V290.039H108.137V287.523L105.543 287.53Z" fill="#6A3E91"/>
<path opacity="0.5" d="M105.543 292.62V295.139H108.137V292.62H105.543Z" fill="#6A3E91"/>
<path opacity="0.5" d="M105.543 297.713V300.232H108.137V297.713H105.543Z" fill="#6A3E91"/>
<path opacity="0.5" d="M105.543 302.797V305.316H108.137V302.797H105.543Z" fill="#6A3E91"/>
</g>
<g opacity="0.5">
<path opacity="0.5" d="M96.5533 251.879V254.398H99.1479V251.879H96.5533Z" fill="#6A3E91"/>
<path opacity="0.5" d="M96.5533 256.973V259.488H99.1479V256.973H96.5533Z" fill="#6A3E91"/>
<path opacity="0.5" d="M96.5533 262.063V264.582H99.1479V262.063H96.5533Z" fill="#6A3E91"/>
<path opacity="0.5" d="M96.5533 267.156V269.675H99.1479V267.156H96.5533Z" fill="#6A3E91"/>
<path opacity="0.5" d="M96.5533 272.25V274.768H99.1479V272.25H96.5533Z" fill="#6A3E91"/>
<path opacity="0.5" d="M96.5533 277.343V279.862H99.1479V277.343H96.5533Z" fill="#6A3E91"/>
<path opacity="0.5" d="M96.5533 282.436V284.955H99.1479V282.436H96.5533Z" fill="#6A3E91"/>
<path opacity="0.5" d="M96.5533 287.53V290.039H99.1479V287.523L96.5533 287.53Z" fill="#6A3E91"/>
<path opacity="0.5" d="M96.5533 292.62V295.139H99.1479V292.62H96.5533Z" fill="#6A3E91"/>
<path opacity="0.5" d="M96.5533 297.713V300.232H99.1479V297.713H96.5533Z" fill="#6A3E91"/>
<path opacity="0.5" d="M96.5533 302.797V305.316H99.1479V302.797H96.5533Z" fill="#6A3E91"/>
</g>
<defs>
<linearGradient id="paint0_linear" x1="593.164" y1="237.665" x2="237.398" y2="237.665" gradientUnits="userSpaceOnUse">
<stop stop-color="#F9795A"/>
<stop offset="1" stop-color="#EB3668"/>
</linearGradient>
</defs>
</svg>
